<?xml version="1.0" encoding="utf-8"?>
<!-- Generator: Adobe Illustrator 26.4.1, SVG Export Plug-In . SVG Version: 6.00 Build 0)  -->
<svg version="1.1" id="Layer_1" xmlns="http://www.w3.org/2000/svg" xmlns:xlink="http://www.w3.org/1999/xlink" x="0px" y="0px"
	 viewBox="0 0 372.3 373.4" style="enable-background:new 0 0 372.3 373.4;" xml:space="preserve">
<style type="text/css">
	.st0{fill:#FFFFFF;}
	.st1{fill:none;stroke:#FFFFFF;stroke-linecap:round;stroke-miterlimit:10;stroke-dasharray:1.0053,5.0267;}
	.st2{fill:none;stroke:#FFFFFF;stroke-miterlimit:10;stroke-dasharray:4.0149,5.0187;}
	.st3{fill:#081B67;}
	.st4{fill:#003F2A;}
	.st5{fill:#00B776;}
	.st6{fill:#31BAFF;}
	.st7{fill:#00A775;}
	.st8{fill:none;stroke:#233239;stroke-linecap:round;stroke-linejoin:round;stroke-miterlimit:10;}
	.st9{fill:#233239;stroke:#233239;stroke-linecap:round;stroke-linejoin:round;stroke-miterlimit:10;}
	.st10{fill:#FDFDFD;}
	.st11{fill:#3369FF;}
	.st12{fill:#233239;}
	.st13{fill:#77168E;}
	.st14{fill:#E695F4;}
	.st15{fill:#633F00;}
	.st16{fill:#FFAB00;}
	.st17{fill:#FFAC00;}
</style>
<g>
	<g>
		<g>
			<path class="st0" d="M255.8,349.4c-5.4-2.8-7.2-10.2-4-16.5l33.6-62.6c0.1-0.1,0.2-0.2,0.3-0.3c0.1,0,0.3,0,0.4,0l20.2,5.4
				c0.3,0.1,0.4,0.5,0.2,0.7l-34.9,66.7c-1.7,3.4-4.6,5.9-7.9,7c-2.3,0.7-4.6,0.7-6.7,0C256.7,349.7,256.2,349.6,255.8,349.4z
				 M256.1,348.9L256.1,348.9L256.1,348.9z M286.2,271.3l-33.4,62.1c-2.9,5.8-1.4,12.5,3.5,15c2.1,1.1,4.6,1.2,7.1,0.5
				c3.1-1,5.7-3.3,7.3-6.5l34.7-66.2L286.2,271.3z"/>
		</g>
	</g>
	<g>
		<path class="st0" d="M170.2,279.2c8.9,3.1,20.3-1.8,32.5-13.7c12.5-12.2,24.2-30.5,33-51.4c13.4-31.7,17.4-63.4,10.2-80.9
			c-2.4-5.8-5.9-9.7-10.4-11.6c-7.1-2.9-16-0.6-25.8,6.7c-9.5,7.1-19,18.3-27.6,32.5c-0.2,0.3-0.1,0.6,0.2,0.8
			c0.3,0.2,0.6,0.1,0.8-0.2c17.2-28.2,37.6-43.8,51.2-39.1c0.3,0.1,0.6,0.2,0.8,0.3c4.3,1.8,7.6,5.5,9.8,11c7,17.2,3,48.6-10.2,80
			c-18,42.8-47.2,71.5-65,64.1c-4.3-1.8-7.6-5.5-9.8-11c-7-17.2-3-48.6,10.2-80c2.8-6.6,5.9-13,9.2-19c0.1-0.3,0.1-0.6-0.2-0.7
			c-0.3-0.1-0.6-0.1-0.7,0.2c-3.4,6.1-6.5,12.5-9.3,19.1c-13.4,31.7-17.4,63.4-10.2,80.9c2.4,5.8,5.9,9.7,10.4,11.6
			C169.6,279,169.9,279.1,170.2,279.2z"/>
	</g>
	<g>
		<path class="st0" d="M173.9,270.1c7.9,2.7,18-1.6,28.8-12.1c11-10.8,21.4-26.9,29.2-45.4c11.8-28,15.4-56.1,9.1-71.5
			c-2.1-5.2-5.2-8.6-9.2-10.3c-10.7-4.5-26.4,5.1-40.9,25.1c-0.2,0.2-0.1,0.6,0.1,0.8c0.2,0.2,0.6,0.1,0.8-0.1
			c14.2-19.5,29.3-29,39.6-24.7c3.7,1.6,6.7,4.8,8.6,9.7c6.2,15.2,2.7,42.9-9,70.7c-15.7,37.2-40.8,62.4-56.6,56.9
			c-0.3-0.1-0.5-0.2-0.8-0.3c-14.2-5.9-15.6-36.6-3.2-71.3c0.1-0.3,0-0.6-0.3-0.7c-0.3-0.1-0.6,0-0.7,0.3
			c-6.1,16.9-9.1,33.6-8.5,46.9c0.6,13.6,5,22.7,12.2,25.8C173.4,269.9,173.6,270,173.9,270.1z"/>
	</g>
	<g>
		<g>
			<path class="st0" d="M204.4,223.1c-1.2-0.5-2-1.5-2.6-2.9c-1.7-4.1-0.8-11.6,2.4-19c4.4-10.4,11.4-17.1,15.9-15.2
				c1.2,0.5,2,1.5,2.6,2.9c1.7,4.1,0.8,11.6-2.4,19c-4.3,10.2-11.1,16.9-15.7,15.3C204.6,223.1,204.5,223.1,204.4,223.1z
				 M205.2,201.5c-3,7.2-4,14.3-2.4,18.2c0.5,1.2,1.2,2,2,2.3c3.8,1.6,10.5-5.1,14.5-14.6c3-7.2,4-14.3,2.4-18.2
				c-0.5-1.2-1.2-2-2-2.3c-0.1,0-0.1,0-0.2-0.1C215.6,185.5,209.1,192.1,205.2,201.5z"/>
		</g>
	</g>
	<g>
		<path class="st0" d="M180.6,278.9c-0.1-0.3,0.1-0.6,0.4-0.6c17.8-4.7,39.4-30.7,53.7-64.5c14.2-33.8,17.7-67.3,8.7-83.3
			c-0.1-0.1-0.1-0.3,0-0.4c0-0.1,0.1-0.3,0.3-0.3c0.3-0.1,0.6-0.1,0.7,0.2l35.7,61.8l51,30.6c0,0,0.1,0,0.1,0.1l20.4,18.1
			c0,0,0.1,0.1,0.1,0.1l8.5,12.5l0,0.1c1.8,2.4,1.3,7.8-1.1,13.5c-2.3,5.4-5.7,9.4-8.6,10.1c-0.1,0-0.1,0.1-0.2,0.1l-14.1,2.7
			c0,0-0.1,0-0.1,0l-27-2.1c0,0-0.1,0-0.1,0l-58-15.7l-69.1,17.6c0,0-0.1,0-0.1,0l-0.5,0.1c-0.1,0-0.2,0-0.2,0
			C180.8,279.3,180.6,279.1,180.6,278.9z M336,278.5l13.7-2.6c0.1,0,0.1-0.1,0.2-0.1c2.5-0.4,5.9-4.4,8.1-9.5
			c2.2-5.2,2.7-10.4,1.2-12.4c0,0,0,0,0-0.1l-8.4-12.5l-20.3-18l-51.1-30.7c-0.1,0-0.1-0.1-0.2-0.2l-31.8-55.1
			c5.1,17.9,0.8,47.3-11.6,76.8c-12.6,29.8-30.8,53.5-47.3,62.3l62.4-15.9c0.1,0,0.2,0,0.3,0l58.1,15.7L336,278.5z"/>
	</g>
	<g>
		<g>
			<path class="st0" d="M180.6,278.9c-0.1-0.3,0.1-0.6,0.4-0.6c17.8-4.7,39.4-30.7,53.7-64.5c14.2-33.8,17.7-67.3,8.7-83.3
				c-0.1-0.1-0.1-0.3,0-0.4c0-0.1,0.1-0.3,0.3-0.3c0.3-0.1,0.6-0.1,0.7,0.2l35.6,61.7l0.4,0.8c3.8,6.6,4.6,21.7-2.8,39.3
				c-6.5,15.5-16.6,27.4-25,29.6l-1.6,0.4l-69.2,17.6c0,0-0.1,0-0.1,0l-0.5,0.1c-0.1,0-0.2,0-0.2,0
				C180.8,279.3,180.6,279.1,180.6,278.9z M235.7,214.2c-12.6,29.8-30.8,53.5-47.3,62.3l62.3-15.8l1.6-0.4
				c8.2-2.1,17.9-13.8,24.3-29c6.9-16.5,6.7-31.8,2.9-38.3l-0.4-0.8c0,0,0,0,0,0l-31.7-54.9C252.4,155.2,248.1,184.6,235.7,214.2z
				 M279.4,192L279.4,192L279.4,192z"/>
		</g>
	</g>
	<g>
		<path class="st0" d="M336.6,279.4c0.1,0,0.2,0,0.3,0l13.4-2.5c0.1,0,0.2,0,0.2-0.1c2.9-0.7,6.3-4.7,8.6-10.1
			c2.4-5.7,2.8-11.1,1.1-13.5l0-0.1l-8.5-12.5c-0.2-0.3-0.5-0.3-0.8-0.1c-0.3,0.2-0.3,0.5-0.1,0.8l8.5,12.6c0,0,0,0,0,0.1
			c1.5,2,1,7.2-1.2,12.4c-2.2,5.1-5.5,9.1-8.1,9.5c-0.1,0-0.2,0-0.2,0.1l-13.1,2.5c-0.3,0.1-0.5,0.3-0.4,0.6
			C336.3,279.2,336.4,279.3,336.6,279.4z"/>
	</g>
	<g>
		<g>
			<path class="st0" d="M335.3,279c0-0.3,0.1-0.6,0.4-0.6l0.3-0.1c4.1-0.9,9.4-7.3,13-15.9c3.3-7.8,4.2-16,2.3-20l-1.1-1.6
				c-0.2-0.2-0.1-0.5,0.1-0.7c0.2-0.2,0.5-0.2,0.7,0c0.5,0.4,0.8,1,1.1,1.7l7.7,11.2l0,0.1c1.8,2.4,1.3,7.8-1.1,13.5
				c-2.3,5.4-5.7,9.4-8.6,10.1c-0.1,0-0.1,0.1-0.2,0.1l-13.9,2.5c-0.1,0-0.2,0-0.3,0.1c-0.1,0-0.2,0-0.3,0
				C335.5,279.4,335.4,279.2,335.3,279z M350,275.8c2.5-0.4,5.9-4.4,8.1-9.5c2.2-5.2,2.7-10.4,1.2-12.4c0,0,0,0,0-0.1l-5.9-8.6
				c0.7,4.6-0.4,11.2-3.2,17.7c-2.8,6.7-6.6,12.1-10.2,14.8l9.8-1.8C349.8,275.8,349.9,275.8,350,275.8z"/>
		</g>
	</g>
	<g>
		<g>
			<path class="st0" d="M308.3,276.8c0-0.3,0.3-0.5,0.6-0.5l0.1,0c5.9,0.6,14.6-9,20.3-22.6c5.3-12.6,6.1-24.9,2.1-29.5l-1.1-1
				c-0.2-0.2-0.2-0.5-0.1-0.7c0.2-0.2,0.5-0.3,0.7-0.1c0.4,0.3,0.8,0.6,1.1,1l19,16.8c3.5,3.3,3,13.1-1,22.7
				c-4,9.4-10,16.3-14.7,16.6c0,0-0.1,0-0.1,0l-25.4-2c0,0,0,0,0,0l-1.1-0.1c0,0-0.1,0-0.1,0c0,0-0.1,0-0.1,0
				C308.5,277.3,308.3,277,308.3,276.8z M349.1,262.5c3.8-9.1,4.4-18.5,1.3-21.5l-16.5-14.6c2.2,6.1,1,16.9-3.6,27.7
				c-4.8,11.4-11.6,20-17.4,22.5l22.5,1.8C339.6,278.1,345.4,271.4,349.1,262.5z"/>
		</g>
	</g>
	<g>
		<g>
			<path class="st0" d="M219.9,186.4c4.2,1.7,4.4,11.3,0,21.2c-7.4,16.6-14.4,15.3-15.2,15.1c0,0,0,0,0,0l15.7,10.7
				c3.9-6.4,7.5-13.6,10.7-21.2c3.1-7.3,5.6-14.6,7.5-21.5L219.9,186.4z"/>
		</g>
		<g>
			<path class="st0" d="M220.1,233.9l-15.7-10.7c-0.2-0.1-0.3-0.5-0.2-0.7c0.1-0.2,0.4-0.4,0.7-0.3c0.7,0.2,7.4,1.5,14.5-14.7
				c3-6.9,4-14.1,2.4-18.1c-0.5-1.2-1.2-2.1-2.1-2.4c-0.3-0.1-0.4-0.4-0.3-0.7c0.1-0.3,0.4-0.4,0.6-0.4l18.7,4.3
				c0.1,0,0.3,0.1,0.3,0.3s0.1,0.3,0.1,0.4c-1.9,7.1-4.5,14.4-7.5,21.6c-3.2,7.5-6.8,14.6-10.7,21.3c-0.1,0.1-0.2,0.2-0.4,0.3
				c-0.1,0-0.2,0-0.3,0C220.2,233.9,220.1,233.9,220.1,233.9z M222,187.4c0.3,0.4,0.6,0.9,0.8,1.5c1.7,4.3,0.7,11.7-2.5,18.9
				c-5.5,12.5-10.9,15.1-13.8,15.5l13.7,9.3c3.8-6.4,7.3-13.4,10.3-20.6c2.9-7,5.4-14,7.3-20.9L222,187.4z"/>
		</g>
	</g>
</g>
<g>
	
		<ellipse transform="matrix(0.3265 -0.9452 0.9452 0.3265 -65.129 267.8008)" class="st1" cx="155.4" cy="179.6" rx="92.8" ry="37.6"/>
</g>
<g>
	
		<ellipse transform="matrix(0.3265 -0.9452 0.9452 0.3265 -77.2906 211.6346)" class="st2" cx="109.9" cy="160.1" rx="111.7" ry="52.6"/>
</g>
<g>
	<path class="st3" d="M98.8,323.8c-15.4,6.7-33.3-7.1-39.8-30.7s0.6-48.1,16.1-54.8c13.7-5.9,29.2,4.2,37.2,23c1,2.4,1.9,5,2.7,7.7
		c0.4,1.6,0.8,3.1,1.1,4.7C120.5,295.7,113.3,317.5,98.8,323.8z"/>
	<ellipse transform="matrix(0.9876 -0.157 0.157 0.9876 -43.0365 17.1306)" class="st4" cx="86.9" cy="281.1" rx="29.9" ry="44.7"/>
	<path class="st5" d="M113.2,277.7L113.2,277.7c3.8,24.2-6.3,46.3-22.6,48.8S58,311.3,54.1,287.1c-3.8-24.2,6.3-46.3,22.6-48.8
		c15.7-2.5,31.7,14,36.2,37.2L113.2,277.7z"/>
	<ellipse transform="matrix(0.9876 -0.157 0.157 0.9876 -43.2033 16.352)" class="st6" cx="81.9" cy="281.7" rx="25.4" ry="37.9"/>
	<ellipse transform="matrix(0.9876 -0.157 0.157 0.9876 -43.2033 16.352)" class="st7" cx="81.9" cy="281.7" rx="25.4" ry="37.9"/>
	<ellipse transform="matrix(0.9876 -0.157 0.157 0.9876 -43.2033 16.352)" class="st8" cx="81.9" cy="281.7" rx="25.4" ry="37.9"/>
	<path class="st3" d="M60.3,291.4c-5.6-20,0.5-40.8,13.7-46.5c0.4-0.2,0.8-0.3,1.3-0.5c-1.1,0.2-2.3,0.6-3.4,1.1
		c-13.1,5.6-19.2,26.4-13.7,46.5c5.4,19.4,19.7,30.9,32.5,26.5C78.5,321,65.4,309.7,60.3,291.4z"/>
	<g>
		<g>
			<path class="st9" d="M76.3,283.8c2.7-0.2,5.5-0.7,8.4-1.4l-2.7-9.8l9.9-3.1l-3-10.9l-24.6,10.3l2.3,8.4l7.5-2.2L76.3,283.8z"/>
			<path class="st9" d="M84.2,283.2c-2.6,0.6-5.1,1.1-7.7,1.5l5.5,20.2l8.7-0.4L84.9,283C84.6,283.1,84.4,283.1,84.2,283.2z"/>
		</g>
		<path class="st9" d="M100.1,276.3c0.5,2.8-5.7,4.8-7.7,5.6c-5.7,2-11.7,3.2-17.7,3.8c-11.1,1-12-2.6-1.5-6.6
			c5.7-2.1,11.6-3.6,17.6-4.4C92.9,274.5,99.3,273.6,100.1,276.3L100.1,276.3z M98.6,276.6c-0.3-0.4-0.8-0.5-1.3-0.6
			c-2.1-0.4-4.4-0.3-6.5-0.2c-5.9,0.5-11.9,1.7-17.5,3.7c-9.8,3.6-9.3,6.6,1.3,5.5c5.9-0.7,11.8-2.2,17.4-4.3c2-0.8,4.1-1.7,5.8-3
			C98.1,277.3,98.5,277,98.6,276.6L98.6,276.6z"/>
	</g>
	<g>
		<g>
			<path class="st10" d="M74.6,283.2c2.7-0.2,5.5-0.7,8.4-1.4l-2.7-9.8l9.9-3.1l-3-10.9l-24.6,10.3l2.3,8.4l7.5-2.2L74.6,283.2z"/>
			<path class="st10" d="M82.6,282.6c-2.6,0.6-5.1,1.1-7.7,1.5l5.5,20.2l8.7-0.4l-5.9-21.4C83,282.5,82.8,282.5,82.6,282.6z"/>
		</g>
		<path class="st10" d="M98.4,275.7c0.5,2.8-5.7,4.8-7.7,5.6c-5.7,2-11.7,3.2-17.7,3.8c-11.1,1-12-2.6-1.5-6.6
			c5.7-2.1,11.6-3.6,17.6-4.4C91.2,273.9,97.6,273,98.4,275.7L98.4,275.7z M97,276c-0.3-0.4-0.8-0.5-1.3-0.6
			c-2.1-0.4-4.4-0.3-6.5-0.2c-5.9,0.5-11.9,1.7-17.5,3.7c-9.8,3.6-9.3,6.6,1.3,5.5c5.9-0.7,11.8-2.2,17.4-4.3c2-0.8,4.1-1.7,5.8-3
			C96.4,276.8,96.8,276.5,97,276L97,276z"/>
	</g>
</g>
<g>
	
		<ellipse transform="matrix(0.9967 -8.064790e-02 8.064790e-02 0.9967 -3.9949 11.1326)" class="st3" cx="135.8" cy="55" rx="34.8" ry="23.3"/>
	
		<ellipse transform="matrix(0.9967 -8.064795e-02 8.064795e-02 0.9967 -3.6781 11.1021)" class="st11" cx="135.6" cy="51.1" rx="34.8" ry="23.3"/>
	
		<ellipse transform="matrix(0.9967 -8.064897e-02 8.064897e-02 0.9967 -3.6781 11.1022)" class="st8" cx="135.6" cy="51.1" rx="29.6" ry="19.8"/>
	<path class="st3" d="M129.4,33.7c15.9-3.1,31.7,2.9,35.3,13.4c0.1,0.3,0.2,0.7,0.3,1c-0.1-0.9-0.3-1.8-0.6-2.7
		C160.8,34.9,145,28.9,129.1,32c-15.4,3-25.2,13.5-22.6,23.7C105.3,46.1,114.9,36.6,129.4,33.7z"/>
	<g>
		<path class="st9" d="M113.4,55.4l0.4-1.4l3.8,0.4c-0.6-2.1-0.1-3.9,1.3-5.3c1.4-1.4,3.9-2.6,7.6-3.5l3,3l-0.4,1.4
			c-1.5,0.4-2.7,0.7-3.5,1.1c-0.9,0.4-1.4,0.8-1.7,1.2c-0.3,0.4-0.4,0.8-0.2,1.3c0.2,0.6,0.6,0.9,1.2,0.9c0.6,0,1.2,0,1.8-0.1
			c1.4-0.3,2.6-0.8,3.4-1.5c0.8-0.7,1.6-1.6,2.3-2.6l1.9-2.7c0.6-0.8,1.2-1.5,1.8-2.2c0.7-0.7,1.5-1.3,2.4-1.8c1-0.5,2.2-1,3.7-1.3
			c2.7-0.6,5.1-0.5,7,0.2c1.9,0.8,3.3,2,4.1,3.8l5-0.8l-0.4,1.4l-4.1,0.9c0.3,1.2,0.2,2.2-0.2,3.1c-0.4,0.9-1.1,1.6-2,2.1
			c-0.9,0.6-1.8,1.1-2.9,1.4c-1.1,0.4-2.1,0.7-3,0.9l-2.4-4.5c0.2-0.1,0.4-1.4,0.4-1.4s1.6,0.8,2.2,0.6c0.8-0.2,1.3-0.5,1.6-0.8
			c0.3-0.3,0.4-0.7,0.2-1.1c-0.2-0.5-0.6-0.8-1.3-0.9c-0.7-0.1-1.3-0.1-1.9,0c-1.4,0.3-2.4,0.8-3.1,1.5c-0.7,0.7-1.3,1.4-1.8,2.2
			l-1.8,2.6c-0.7,0.9-1.4,1.7-2.2,2.5c-0.8,0.8-1.8,1.5-2.9,2.1c-1.1,0.6-2.5,1.1-4.1,1.5c-1.5,0.3-3,0.4-4.4,0.3
			c-1.4-0.2-2.7-0.6-3.7-1.2c-1.1-0.6-1.9-1.5-2.4-2.6l-4.3,1L113.4,55.4z"/>
	</g>
	<g>
		<path class="st0" d="M113.9,54l4.3-1c-0.6-2.1-0.1-3.9,1.3-5.3c1.4-1.4,3.9-2.6,7.6-3.5l2.6,4.4c-1.5,0.4-2.7,0.7-3.5,1.1
			c-0.9,0.4-1.4,0.8-1.7,1.2c-0.3,0.4-0.4,0.8-0.2,1.3c0.2,0.6,0.6,0.9,1.2,0.9c0.6,0,1.2,0,1.8-0.1c1.4-0.3,2.6-0.8,3.4-1.5
			c0.8-0.7,1.6-1.6,2.3-2.6l1.9-2.7c0.6-0.8,1.2-1.5,1.8-2.2c0.7-0.7,1.5-1.3,2.4-1.8c1-0.5,2.2-1,3.7-1.3c2.7-0.6,5.1-0.5,7,0.2
			c1.9,0.8,3.3,2,4.1,3.8l4.1-0.9l0.5,1.5l-4.1,0.9c0.3,1.2,0.2,2.2-0.2,3.1c-0.4,0.9-1.1,1.6-2,2.1c-0.9,0.6-1.8,1.1-2.9,1.4
			c-1.1,0.4-2.1,0.7-3,0.9l-2.4-4.5c1-0.3,1.9-0.5,2.7-0.7c0.8-0.2,1.3-0.5,1.6-0.8c0.3-0.3,0.4-0.7,0.2-1.1
			c-0.2-0.5-0.6-0.8-1.3-0.9c-0.7-0.1-1.3-0.1-1.9,0c-1.4,0.3-2.4,0.8-3.1,1.5c-0.7,0.7-1.3,1.4-1.8,2.2l-1.8,2.6
			c-0.7,0.9-1.4,1.7-2.2,2.5c-0.8,0.8-1.8,1.5-2.9,2.1c-1.1,0.6-2.5,1.1-4.1,1.5c-1.5,0.3-3,0.4-4.4,0.3c-1.4-0.2-2.7-0.6-3.7-1.2
			c-1.1-0.6-1.9-1.5-2.4-2.6l-4.3,1L113.9,54z"/>
	</g>
	<g>
		<path class="st12" d="M111.2,53.9c0.1-3.3,2.1-6.6,5.8-9.5c4.3-3.4,10.4-5.7,17.1-6.6c1.2-0.1,2.3-0.2,3.4-0.3
			c6.7-0.3,12.8,1,17,3.5l2.4-0.7c-5.3-3.8-13.9-5.6-23.1-4.5c-7,0.9-13.4,3.4-18,7c-4.4,3.4-6.7,7.5-6.6,11.6L111.2,53.9z"/>
		<path class="st12" d="M161.7,45.9l-1.9,0.6c0.3,0.8,0.6,1.6,0.7,2.4c0.5,3.7-1.6,7.6-5.7,10.8c-4.3,3.4-10.4,5.7-17.1,6.6
			c-6.7,0.9-13.1,0.1-18.2-2.1c-2.5-1.1-4.5-2.5-5.9-4.1l-2.1,0.6c1.6,2.1,4.1,3.9,7.2,5.3c4.4,1.9,9.9,2.8,15.6,2.5
			c1.2-0.1,2.4-0.2,3.6-0.3c7-0.9,13.4-3.4,18-7c4.8-3.7,7.1-8.2,6.5-12.7C162.3,47.7,162.1,46.8,161.7,45.9z"/>
	</g>
	<g>
		<path class="st0" d="M111.1,52.9c0.1-3.3,2.1-6.6,5.8-9.5c4.3-3.4,10.4-5.7,17.1-6.6c1.2-0.1,2.3-0.2,3.4-0.3
			c6.7-0.3,12.8,1,17,3.5l2.4-0.7c-5.3-3.8-13.9-5.6-23.1-4.5c-7,0.9-13.4,3.4-18,7c-4.4,3.4-6.7,7.5-6.6,11.6L111.1,52.9z"/>
		<path class="st0" d="M161.6,44.9l-1.9,0.6c0.3,0.8,0.6,1.6,0.7,2.4c0.5,3.7-1.6,7.6-5.7,10.8c-4.3,3.4-10.4,5.7-17.1,6.6
			c-6.7,0.9-13.1,0.1-18.2-2.1c-2.5-1.1-4.5-2.5-5.9-4.1l-2.1,0.6c1.6,2.1,4.1,3.9,7.2,5.3c4.4,1.9,9.9,2.8,15.6,2.5
			c1.2-0.1,2.4-0.2,3.6-0.3c7-0.9,13.4-3.4,18-7c4.8-3.7,7.1-8.2,6.5-12.7C162.3,46.7,162,45.8,161.6,44.9z"/>
	</g>
</g>
<g>
	
		<ellipse transform="matrix(0.756 -0.6545 0.6545 0.756 -89.2873 123.379)" class="st6" cx="120.9" cy="181.5" rx="17.1" ry="25.6"/>
	<path class="st13" d="M139.5,198.6c-5.5,7.9-18.3,6.6-28.6-2.9c-10.3-9.5-14.2-23.6-8.7-31.5c4.9-7,15.5-6.8,25-0.1
		c1.2,0.9,2.5,1.9,3.6,2.9c0.7,0.6,1.3,1.3,1.9,1.9C141.6,178.5,144.7,191.3,139.5,198.6z"/>
	
		<ellipse transform="matrix(0.756 -0.6545 0.6545 0.756 -91.0367 122.3645)" class="st14" cx="118.6" cy="183.3" rx="17.1" ry="25.6"/>
	
		<ellipse transform="matrix(0.756 -0.6545 0.6545 0.756 -91.0366 122.3642)" class="st14" cx="118.6" cy="183.3" rx="14.5" ry="21.7"/>
	
		<ellipse transform="matrix(0.756 -0.6545 0.6545 0.756 -91.0366 122.3642)" class="st8" cx="118.6" cy="183.3" rx="14.5" ry="21.7"/>
	<path class="st3" d="M111,194.5c-8.8-8.1-12.1-20-7.4-26.7c0.1-0.2,0.3-0.4,0.5-0.6c-0.5,0.5-0.9,1-1.3,1.6
		c-4.7,6.7-1.4,18.7,7.4,26.7c8.5,7.8,18.9,9.1,23.8,3.1C128.8,203.4,119,201.9,111,194.5z"/>
	<g>
		<path class="st9" d="M130.7,194.9l-1,0.3l-1.4-2.5c-1,1.2-2.2,1.7-3.6,1.4c-1.5-0.3-3.2-1.4-5.4-3.2l0.4-3.1l1-0.3
			c0.9,0.8,1.6,1.3,2.2,1.7c0.6,0.4,1.1,0.6,1.4,0.6c0.4,0,0.6-0.1,0.8-0.4c0.2-0.3,0.2-0.7,0-1.1c-0.2-0.4-0.5-0.7-0.9-1.1
			c-0.8-0.8-1.6-1.2-2.4-1.5c-0.8-0.2-1.6-0.3-2.5-0.4l-2.4,0c-0.7,0-1.4-0.1-2.1-0.2c-0.7-0.1-1.4-0.4-2.1-0.7
			c-0.7-0.4-1.5-1-2.4-1.7c-1.5-1.4-2.5-2.9-2.9-4.4c-0.4-1.5-0.3-2.9,0.4-4.1l-2.7-2.8l1-0.3l2.3,2.1c0.6-0.7,1.2-1.1,1.9-1.1
			c0.7-0.1,1.4,0,2.1,0.3c0.7,0.3,1.4,0.7,2.1,1.2c0.7,0.5,1.3,1,1.8,1.5l-1.6,3.3c-0.1-0.1-1,0.3-1,0.3s-0.2-1.4-0.6-1.6
			c-0.5-0.4-0.9-0.6-1.2-0.7c-0.3-0.1-0.6,0-0.8,0.3c-0.2,0.3-0.2,0.7,0,1.2c0.2,0.5,0.5,0.9,0.9,1.2c0.8,0.7,1.5,1.1,2.2,1.3
			c0.7,0.1,1.4,0.2,2.1,0.2l2.3,0.1c0.8,0,1.6,0.1,2.4,0.3c0.8,0.2,1.7,0.5,2.5,0.9c0.8,0.4,1.7,1.1,2.6,1.9
			c0.9,0.8,1.6,1.7,2.1,2.6c0.5,0.9,0.8,1.9,0.9,2.8c0.1,0.9-0.1,1.8-0.5,2.6l2.4,2.3L130.7,194.9z"/>
	</g>
	<g>
		<path class="st0" d="M129.7,195.2l-2.4-2.2c-1,1.2-2.2,1.7-3.6,1.4c-1.5-0.3-3.2-1.4-5.4-3.2l1.4-3.4c0.9,0.8,1.6,1.3,2.2,1.7
			c0.6,0.4,1.1,0.6,1.4,0.6c0.4,0,0.6-0.1,0.8-0.4c0.2-0.3,0.2-0.7,0-1.1c-0.2-0.4-0.5-0.7-0.9-1.1c-0.8-0.8-1.6-1.2-2.4-1.5
			c-0.8-0.2-1.6-0.3-2.5-0.4l-2.4,0c-0.7,0-1.4-0.1-2.1-0.2c-0.7-0.1-1.4-0.4-2.1-0.7c-0.7-0.4-1.5-1-2.4-1.7
			c-1.5-1.4-2.5-2.9-2.9-4.4c-0.4-1.5-0.3-2.9,0.4-4.1l-2.3-2.1l0.7-1l2.3,2.1c0.6-0.7,1.2-1.1,1.9-1.1c0.7-0.1,1.4,0,2.1,0.3
			c0.7,0.3,1.4,0.7,2.1,1.2c0.7,0.5,1.3,1,1.8,1.5l-1.6,3.3c-0.6-0.5-1.1-1-1.6-1.3c-0.5-0.4-0.9-0.6-1.2-0.7
			c-0.3-0.1-0.6,0-0.8,0.3c-0.2,0.3-0.2,0.7,0,1.2c0.2,0.5,0.5,0.9,0.9,1.2c0.8,0.7,1.5,1.1,2.2,1.3c0.7,0.1,1.4,0.2,2.1,0.2
			l2.3,0.1c0.8,0,1.6,0.1,2.4,0.3c0.8,0.2,1.7,0.5,2.5,0.9c0.8,0.4,1.7,1.1,2.6,1.9c0.9,0.8,1.6,1.7,2.1,2.6
			c0.5,0.9,0.8,1.9,0.9,2.8c0.1,0.9-0.1,1.8-0.5,2.6l2.4,2.3L129.7,195.2z"/>
	</g>
</g>
<ellipse transform="matrix(0.4061 -0.9138 0.9138 0.4061 -62.0043 310.4338)" class="st0" cx="207.8" cy="202.9" rx="18.4" ry="8.9"/>
<path class="st0" d="M200.4,219.6c-8.8-3.9-12.6-14.5-8.5-23.7s14.5-13.5,23.3-9.6"/>
<g>
	<g>
		
			<ellipse transform="matrix(0.5621 -0.8271 0.8271 0.5621 -93.3018 101.3485)" class="st6" cx="49.1" cy="138.8" rx="35.1" ry="35.1"/>
		
			<ellipse transform="matrix(0.5621 -0.8271 0.8271 0.5621 -93.3018 101.3485)" class="st6" cx="49.1" cy="138.8" rx="35.1" ry="35.1"/>
		
			<ellipse transform="matrix(0.5621 -0.8271 0.8271 0.5621 -93.3018 101.3485)" class="st15" cx="49.1" cy="138.8" rx="35.1" ry="35.1"/>
		
			<ellipse transform="matrix(0.2645 -0.9644 0.9644 0.2645 -99.7141 145.7135)" class="st16" cx="45.7" cy="138.2" rx="35.1" ry="35.1"/>
		
			<ellipse transform="matrix(0.2758 -0.9612 0.9612 0.2758 -99.7922 143.9998)" class="st17" cx="45.7" cy="138.2" rx="29.8" ry="29.8"/>
		
			<ellipse transform="matrix(0.2758 -0.9612 0.9612 0.2758 -99.7922 143.9998)" class="st8" cx="45.7" cy="138.2" rx="29.8" ry="29.8"/>
		<path class="st3" d="M21.2,152.6c-7.8-14.5-2.4-32.5,12.1-40.3c5.8-3.1,12.1-4.1,18.1-3.3c-6.5-1.3-13.6-0.4-19.9,3
			c-14.5,7.8-19.9,25.9-12.1,40.3c4.7,8.7,13.1,14.1,22.2,15.4C33.3,166,25.6,160.8,21.2,152.6z"/>
	</g>
	<g>
		<path class="st3" d="M59.4,120.5c0.9,1,1.7,2,2.6,3c-0.2,0.2-0.5,0.4-0.7,0.6c-0.6,0.5-1.2,1-1.7,1.5c-0.1,0.1-0.1,0.1,0,0.2
			c0.1,0.1,0.3,0.3,0.4,0.4c0.8,0.8,1.5,1.6,2.1,2.6c0.1,0.1,0.1,0.1,0.1,0c0.8-0.7,1.7-1.4,2.5-2.2c0.9,1,1.7,2,2.6,3
			c0,0-0.1,0.1-0.1,0.1c-1,0.9-2.1,1.8-3.1,2.7c-0.1,0.1-0.1,0.1-0.1,0.2c0.8,2.2,1.1,4.4,0.9,6.7c-0.2,2.5-0.9,4.8-2.1,7
			c-0.7,1.2-1.5,2.3-2.4,3.4c-0.6,0.7-1.3,1.4-2,2c-3.5,3-7,6-10.5,9.1c-0.1,0.1-0.1,0.1-0.2,0c-2.3-2.7-4.6-5.3-6.9-8
			c-0.1-0.1-0.1-0.1-0.2,0c-1.1,1-2.3,2-3.4,2.9c-0.1,0.1-0.1,0.1-0.2,0c-0.8-0.9-1.6-1.9-2.4-2.8c-0.1-0.1-0.1-0.1,0-0.2
			c1.1-1,2.3-2,3.4-3c0.1-0.1,0.1-0.1,0-0.2c-0.9-1-1.7-2-2.6-3c-0.1-0.1-0.1-0.1-0.2,0c-1.1,1-2.3,2-3.4,3c-0.1,0.1-0.1,0.1-0.2,0
			c-0.8-0.9-1.6-1.9-2.4-2.8c-0.1-0.1-0.1-0.1,0-0.2c1.1-1,2.3-2,3.4-3c0.1-0.1,0.1-0.1,0-0.2c-2.3-2.7-4.7-5.4-7-8.1
			c0,0-0.1-0.1-0.1-0.1c3.5-3.1,7-6.1,10.6-9.2c0.2-0.1,0.3-0.3,0.5-0.4c0.6-0.5,1.2-0.9,1.9-1.3c0.8-0.5,1.7-1,2.6-1.4
			c2.2-1,4.5-1.5,6.9-1.6c1.6,0,3.1,0.2,4.6,0.6c1.2,0.3,2.3,0.8,3.4,1.4c0.1,0,0.1,0,0.2,0C57.3,122.3,58.3,121.5,59.4,120.5
			C59.3,120.6,59.4,120.5,59.4,120.5z M44.3,133.5c2.8-2.4,5.6-4.9,8.4-7.3c0,0,0,0,0.1-0.1c0,0,0.1-0.1,0-0.1
			c-0.6-0.3-1.2-0.5-1.9-0.7c-2.4-0.6-4.8-0.5-7.2,0.3c-1.9,0.6-3.7,1.7-5.2,3c-2.5,2.2-5,4.4-7.6,6.5c-0.1,0.1-0.1,0.1,0,0.2
			c1.6,1.8,3.2,3.6,4.7,5.5c0.1,0.1,0.1,0.1,0.2,0C38.7,138.4,41.5,136,44.3,133.5z M52.2,142.6c-2.8,2.4-5.6,4.9-8.5,7.3
			c-0.1,0.1-0.1,0.1,0,0.2c1.5,1.8,3.1,3.6,4.6,5.4c0.1,0.1,0.1,0.1,0.2,0c2.4-2.1,4.9-4.2,7.3-6.3c0.5-0.5,1.1-1,1.5-1.5
			c0.8-0.9,1.5-1.8,2.1-2.8c0.9-1.7,1.5-3.4,1.7-5.3c0.1-1.4,0-2.8-0.4-4.2c0-0.1,0-0.1-0.1,0c0,0,0,0,0,0
			C57.8,137.8,55,140.2,52.2,142.6z M50.1,139.3c3-2.6,5.9-5.1,8.9-7.7c0,0,0,0,0.1-0.1c0,0,0.1-0.1,0-0.1c-0.2-0.4-0.5-0.7-0.8-1
			c-0.6-0.7-1.2-1.4-1.8-2c-0.1-0.1-0.1-0.1-0.2,0c-6,5.2-11.9,10.3-17.9,15.5c-0.1,0.1-0.1,0.1,0,0.2c0.9,1,1.7,2,2.6,3
			c0.1,0.1,0.1,0.1,0.2,0C44.1,144.4,47.1,141.8,50.1,139.3z"/>
	</g>
	<g>
		<path class="st0" d="M58.3,119.4c0.9,1,1.7,2,2.6,3c-0.2,0.2-0.5,0.4-0.7,0.6c-0.6,0.5-1.2,1-1.7,1.5c-0.1,0.1-0.1,0.1,0,0.2
			c0.1,0.1,0.3,0.3,0.4,0.4c0.8,0.8,1.5,1.6,2.1,2.6c0.1,0.1,0.1,0.1,0.1,0c0.8-0.7,1.7-1.4,2.5-2.2c0.9,1,1.7,2,2.6,3
			c0,0-0.1,0.1-0.1,0.1c-1,0.9-2.1,1.8-3.1,2.7c-0.1,0.1-0.1,0.1-0.1,0.2c0.8,2.2,1.1,4.4,0.9,6.7c-0.2,2.5-0.9,4.8-2.1,7
			c-0.7,1.2-1.5,2.3-2.4,3.4c-0.6,0.7-1.3,1.4-2,2c-3.5,3-7,6-10.5,9.1c-0.1,0.1-0.1,0.1-0.2,0c-2.3-2.7-4.6-5.3-6.9-8
			c-0.1-0.1-0.1-0.1-0.2,0c-1.1,1-2.3,2-3.4,2.9c-0.1,0.1-0.1,0.1-0.2,0c-0.8-0.9-1.6-1.9-2.4-2.8c-0.1-0.1-0.1-0.1,0-0.2
			c1.1-1,2.3-2,3.4-3c0.1-0.1,0.1-0.1,0-0.2c-0.9-1-1.7-2-2.6-3c-0.1-0.1-0.1-0.1-0.2,0c-1.1,1-2.3,2-3.4,3c-0.1,0.1-0.1,0.1-0.2,0
			c-0.8-0.9-1.6-1.9-2.4-2.8c-0.1-0.1-0.1-0.1,0-0.2c1.1-1,2.3-2,3.4-3c0.1-0.1,0.1-0.1,0-0.2c-2.3-2.7-4.7-5.4-7-8.1
			c0,0-0.1-0.1-0.1-0.1c3.5-3.1,7-6.1,10.6-9.2c0.2-0.1,0.3-0.3,0.5-0.4c0.6-0.5,1.2-0.9,1.9-1.3c0.8-0.5,1.7-1,2.6-1.4
			c2.2-1,4.5-1.5,6.9-1.6c1.6,0,3.1,0.2,4.6,0.6c1.2,0.3,2.3,0.8,3.4,1.4c0.1,0,0.1,0,0.2,0C56.1,121.2,57.2,120.3,58.3,119.4
			C58.2,119.4,58.2,119.4,58.3,119.4z M43.2,132.4c2.8-2.4,5.6-4.9,8.4-7.3c0,0,0,0,0.1-0.1c0,0,0.1-0.1,0-0.1
			c-0.6-0.3-1.2-0.5-1.9-0.7c-2.4-0.6-4.8-0.5-7.2,0.3c-1.9,0.6-3.7,1.7-5.2,3c-2.5,2.2-5,4.4-7.6,6.5c-0.1,0.1-0.1,0.1,0,0.2
			c1.6,1.8,3.2,3.6,4.7,5.5c0.1,0.1,0.1,0.1,0.2,0C37.6,137.3,40.4,134.8,43.2,132.4z M51.1,141.5c-2.8,2.4-5.6,4.9-8.5,7.3
			c-0.1,0.1-0.1,0.1,0,0.2c1.5,1.8,3.1,3.6,4.6,5.4c0.1,0.1,0.1,0.1,0.2,0c2.4-2.1,4.9-4.2,7.3-6.3c0.5-0.5,1.1-1,1.5-1.5
			c0.8-0.9,1.5-1.8,2.1-2.8c0.9-1.7,1.5-3.4,1.7-5.3c0.1-1.4,0-2.8-0.4-4.2c0-0.1,0-0.1-0.1,0c0,0,0,0,0,0
			C56.7,136.6,53.9,139.1,51.1,141.5z M49,138.1c3-2.6,5.9-5.1,8.9-7.7c0,0,0,0,0.1-0.1c0,0,0.1-0.1,0-0.1c-0.2-0.4-0.5-0.7-0.8-1
			c-0.6-0.7-1.2-1.4-1.8-2c-0.1-0.1-0.1-0.1-0.2,0c-6,5.2-11.9,10.3-17.9,15.5c-0.1,0.1-0.1,0.1,0,0.2c0.9,1,1.7,2,2.6,3
			c0.1,0.1,0.1,0.1,0.2,0C43,143.3,46,140.7,49,138.1z"/>
	</g>
</g>
</svg>
