<?xml version="1.0" encoding="UTF-8" standalone="no"?>
<!-- Created with Inkscape (http://www.inkscape.org/) -->

<svg
   width="210mm"
   height="297mm"
   viewBox="0 0 210 297"
   version="1.1"
   id="svg36452"
   inkscape:version="1.2.2 (b0a84865, 2022-12-01)"
   sodipodi:docname="cloud.svg"
   xmlns:inkscape="http://www.inkscape.org/namespaces/inkscape"
   xmlns:sodipodi="http://sodipodi.sourceforge.net/DTD/sodipodi-0.dtd"
   xmlns="http://www.w3.org/2000/svg"
   xmlns:svg="http://www.w3.org/2000/svg">
  <sodipodi:namedview
     id="namedview36454"
     pagecolor="#ffffff"
     bordercolor="#000000"
     borderopacity="0.25"
     inkscape:showpageshadow="2"
     inkscape:pageopacity="0.0"
     inkscape:pagecheckerboard="0"
     inkscape:deskcolor="#d1d1d1"
     inkscape:document-units="mm"
     showgrid="false"
     inkscape:zoom="0.70481212"
     inkscape:cx="57.462122"
     inkscape:cy="364.63618"
     inkscape:window-width="1512"
     inkscape:window-height="922"
     inkscape:window-x="2560"
     inkscape:window-y="219"
     inkscape:window-maximized="0"
     inkscape:current-layer="layer1" />
  <defs
     id="defs36449" />
  <g
     inkscape:label="Layer 1"
     inkscape:groupmode="layer"
     id="layer1">
    <path
       style="fill:#9fcce6;stroke-width:0.889;stroke-linecap:round"
       d="m -303.09159,149.19997 193.3594,1.70611 -9.09926,-9.66797 c 0,0 -7.39315,-7.39315 -12.51149,-5.68704 -5.11834,1.70612 -13.0802,1.70612 -16.49242,-1.1374 -3.41223,-2.84353 -15.92372,-17.62983 -27.2978,-16.49242 -11.37408,1.1374 -29.00391,4.54963 -33.55355,0 -4.54963,-4.54963 -27.29779,-18.198534 -32.41613,-17.06112 -5.11834,1.13741 -17.06112,-1.137414 -26.16039,10.80538 -9.09927,11.94278 -25.02298,13.64889 -27.8665,13.08018 -2.84352,-0.5687 -5.55906,2.38413 -6.25575,4.54964 -2.72257,8.46248 -8.53056,6.82445 -8.53056,6.82445 l -5.46597,6.67145 -0.78978,7.54615 z"
       id="path36618"
       sodipodi:nodetypes="cccsssssssscccc" />
    <path
       id="path36620"
       style="fill:#e6f6ff;fill-opacity:1;stroke-width:0.889;stroke-linecap:round"
       d="m 94.232187,48.688274 a 41.325233,28.001213 0 0 0 -37.747046,16.62534 20.227777,10.909778 0 0 0 -5.88853,-0.47284 20.227777,10.909778 0 0 0 -20.22771,10.90941 20.227777,10.909778 0 0 0 0.0444,0.70022 20.227777,10.909778 0 0 0 -14.90503,8.56847 14.781056,10.534142 0 0 0 -0.14314,-10e-4 14.781056,10.534142 0 0 0 -12.9516688,5.46014 l -0.0672,0.002 -0.29352,0.50746 a 14.781056,10.534142 0 0 0 -0.63872,1.10277 l -6.61872,11.431856 -0.68626,2.74557 20.6369788,-0.1974 a 14.781056,10.534142 0 0 0 0.61909,0.016 14.781056,10.534142 0 0 0 1.12809,-0.0326 l 154.938349,-1.48053 a 12.047787,25.571475 88.768346 0 0 13.41727,0.0377 35.330921,12.487149 1.413964 0 0 5.13612,0.22686 35.330921,12.487149 1.413964 0 0 12.17807,-0.55811 l 7.4812,-0.0713 -0.0413,-1.15135 a 35.330921,12.487149 1.413964 0 0 15.2802,-10.103776 35.330921,12.487149 1.413964 0 0 -35.73942,-13.11289 35.330921,12.487149 1.413964 0 0 -2.06189,-0.0119 18.610315,47.244312 77.254177 0 0 1.31878,-6.73499 18.610315,47.244312 77.254177 0 0 -39.55262,-9.61905 12.047787,25.571475 16.991663 0 0 -14.46992,-5.59242 12.047787,25.571475 16.991663 0 0 -4.2323,4.95783 41.325233,28.001213 0 0 0 -35.913573,-14.15107 z"
       inkscape:export-filename="path36620.png"
       inkscape:export-xdpi="22.012636"
       inkscape:export-ydpi="22.012636" />
    <path
       id="path36620-3"
       style="fill:#e6f6ff;stroke-width:0.583118;stroke-linecap:round;fill-opacity:1"
       d="m 102.88581,114.31022 c -7.023236,0.004 -13.386916,6.51838 -16.240206,16.62534 -0.82126,-0.31339 -1.675,-0.47273 -2.53347,-0.47284 -4.80627,2e-5 -8.70257,4.88426 -8.70273,10.90941 3.8e-4,0.2336 0.007,0.46713 0.0191,0.70022 -3.28663,1.04611 -5.78928,4.39008 -6.41271,8.56847 -0.0205,-5e-4 -0.0411,-8.3e-4 -0.0616,-0.001 -2.31958,4.5e-4 -4.45502,2.09291 -5.5723,5.46014 l -0.0289,0.002 -0.12628,0.50746 c -0.1041,0.3587 -0.19585,0.72688 -0.2748,1.10277 l -2.84762,11.43186 -0.29526,2.74557 8.87881,-0.1974 c 0.0887,0.008 0.17752,0.0138 0.26636,0.016 0.16197,-6.2e-4 0.32388,-0.0115 0.48535,-0.0326 l 66.660356,-1.48053 c 1.86851,0.57664 3.86147,0.58966 5.77262,0.0377 0.73217,0.11951 1.47072,0.19533 2.20975,0.22686 1.79173,0.0723 3.56554,-0.11668 5.23947,-0.55811 l 3.2187,-0.0713 -0.0178,-1.15135 c 4.16911,-2.15145 6.6341,-5.93989 6.57412,-10.10378 -0.0999,-6.90285 -6.98415,-12.7737 -15.37646,-13.11289 -0.29602,-0.0111 -0.59185,-0.0151 -0.8871,-0.0119 0.57819,-2.36922 0.77014,-4.64761 0.56739,-6.73499 -0.82491,-8.42172 -7.87179,-12.40503 -17.01704,-9.61905 -0.74662,-9.19653 -4.45196,-6.32923 -6.22551,-5.59242 -0.62791,1.31667 -1.24265,2.99045 -1.82089,4.95783 -3.16119,-8.74779 -9.06033,-14.15048 -15.45139,-14.15107 z"
       sodipodi:nodetypes="ccccccccccccccccccccccccccccccc" />
  </g>
</svg>
