<?xml version="1.0" encoding="UTF-8" standalone="no"?>
<!-- Created with Inkscape (http://www.inkscape.org/) -->

<svg
   width="201"
   height="160"
   viewBox="0 0 53.181251 42.333332"
   version="1.1"
   id="svg5"
   xml:space="preserve"
   xmlns="http://www.w3.org/2000/svg"
   xmlns:svg="http://www.w3.org/2000/svg"><defs
     id="defs2" /><g
     id="layer1"><g
       id="g4112"
       transform="matrix(0.41234807,0,0,0.41234807,-5.4742151,-22.508042)"><g
         id="g9072"><g
           id="g4077"><g
             id="g10673"
             transform="rotate(-5.8767645,60.694153,51.876051)"><path
               style="fill:none;fill-opacity:1;stroke:#fdf2ec;stroke-width:3.63299;stroke-linecap:round;stroke-opacity:1"
               d="m 38.526225,105.83628 c 0,0 -17.169744,-6.45034 -14.176608,-27.992695"
               id="path2584-2" /><path
               id="path3897"
               style="fill:#fdf2ec;fill-opacity:1;stroke:none;stroke-width:2.794;stroke-linecap:round;stroke-opacity:1"
               d="M 26.10908,55.408513 A 11.291737,13.352926 0 0 0 15.41412,68.736382 11.291737,13.352926 0 0 0 26.70594,82.089055 11.291737,13.352926 0 0 0 37.99776,68.736382 11.291737,13.352926 0 0 0 37.06965,63.436963 L 26.50647,73.562444 c 0,0 -3.64506,-6.353902 -0.39739,-18.153931 z" /></g></g><path
           style="fill:none;fill-opacity:1;stroke:#fdf2ec;stroke-width:3.63299;stroke-linecap:round;stroke-opacity:1"
           d="m 117.26841,105.83628 c 0,0 17.16974,-6.45034 14.1766,-27.992695"
           id="path4079" /><path
           id="path4081"
           style="fill:#fdf2ec;fill-opacity:1;stroke:none;stroke-width:2.794;stroke-linecap:round;stroke-opacity:1"
           d="m 129.68555,55.408513 a 11.291737,13.352926 0 0 1 10.69496,13.327869 11.291737,13.352926 0 0 1 -11.29182,13.352673 11.291737,13.352926 0 0 1 -11.29182,-13.352673 11.291737,13.352926 0 0 1 0.92811,-5.299419 l 10.56318,10.125481 c 0,0 3.64506,-6.353902 0.39739,-18.153931 z" /><g
           id="g10696"><path
             id="path111"
             style="fill:#fdf2ec;fill-opacity:1;stroke:none;stroke-width:2.39881;stroke-linecap:round"
             d="M 78.719049 85.530904 A 45.870384 32.214115 0 0 0 32.84856 117.74502 A 45.870384 32.214115 0 0 0 78.719049 149.95913 A 45.870384 32.214115 0 0 0 124.58828 117.74502 A 45.870384 32.214115 0 0 0 78.719049 85.530904 z " /><g
             id="g2784"
             style="stroke:#fdf2ec;stroke-opacity:1"><path
               style="fill:none;fill-opacity:1;stroke:#fdf2ec;stroke-width:3.63299;stroke-linecap:round;stroke-opacity:1"
               d="m 42.307548,122.48191 c 0,0 -21.650592,-2.14873 -27.08145,19.32505"
               id="path2584" /><path
               style="fill:none;fill-opacity:1;stroke:#fdf2ec;stroke-width:3.63299;stroke-linecap:round;stroke-opacity:1"
               d="m 50.246815,129.77072 c 0,0 -21.650591,-2.14873 -27.081449,19.32505"
               id="path2768" /><path
               style="fill:none;fill-opacity:1;stroke:#fdf2ec;stroke-width:3.63299;stroke-linecap:round;stroke-opacity:1"
               d="m 58.653098,136.3762 c 0,0 -21.650592,-2.14873 -27.08145,19.32505"
               id="path2779" /></g><path
             style="fill:none;fill-opacity:1;stroke:#fdf2ec;stroke-width:3.63299;stroke-linecap:round;stroke-opacity:1"
             d="m 112.84175,122.22554 c 0,0 21.65059,-2.14873 27.08145,19.32505"
             id="path2786" /><path
             style="fill:none;fill-opacity:1;stroke:#fdf2ec;stroke-width:3.63299;stroke-linecap:round;stroke-opacity:1"
             d="m 104.90249,129.51435 c 0,0 21.65059,-2.14873 27.08144,19.32505"
             id="path2788" /><path
             style="fill:none;fill-opacity:1;stroke:#fdf2ec;stroke-width:3.63299;stroke-linecap:round;stroke-opacity:1"
             d="m 96.496202,136.11983 c 0,0 21.650588,-2.14873 27.081448,19.32505"
             id="path2790" /><g
             id="g3829"><rect
               style="fill:#fdf2ec;fill-opacity:1;stroke:none;stroke-width:1.21074;stroke-linecap:round"
               id="rect2481"
               width="4.6078234"
               height="18.988926"
               x="33.113384"
               y="90.238281"
               transform="rotate(-16.530714)" /><g
               id="g3821"
               transform="translate(-1.9558011,0.53340029)"><circle
                 style="fill:#fdf2ec;fill-opacity:1;stroke:none;stroke-width:0.624032;stroke-linecap:round"
                 id="path111-5"
                 cx="57.180256"
                 cy="68.353012"
                 r="10" /><circle
                 style="fill:#ffffff;fill-opacity:1;stroke:none;stroke-width:0.474839;stroke-linecap:round"
                 id="path111-5-7"
                 cx="57.196678"
                 cy="68.316002"
                 r="7.6091995" /><circle
                 style="fill:#fdf2ec;fill-opacity:1;stroke:none;stroke-width:0.305245;stroke-linecap:round"
                 id="path111-5-7-2"
                 cx="56.96526"
                 cy="68.475548"
                 r="4.8914928" /><circle
                 style="fill:#ffffff;fill-opacity:1;stroke:none;stroke-width:0.152623;stroke-linecap:round"
                 id="circle3815"
                 cx="59.315464"
                 cy="65.485878"
                 r="2.4457464" /></g></g><rect
             style="fill:#fdf2ec;fill-opacity:1;stroke:none;stroke-width:1.21074;stroke-linecap:round"
             id="rect3831"
             width="4.6078234"
             height="18.988926"
             x="-114.92949"
             y="46.299648"
             transform="matrix(-0.95866735,-0.28452929,-0.28452929,0.95866735,0,0)" /><circle
             style="fill:#fdf2ec;fill-opacity:1;stroke:none;stroke-width:0.624032;stroke-linecap:round"
             id="circle3833"
             cx="-99.201241"
             cy="68.886414"
             r="10"
             transform="scale(-1,1)" /><circle
             style="fill:#ffffff;fill-opacity:1;stroke:none;stroke-width:0.474839;stroke-linecap:round"
             id="circle3835"
             cx="-99.184822"
             cy="68.849403"
             r="7.6091995"
             transform="scale(-1,1)" /><circle
             style="fill:#fdf2ec;fill-opacity:1;stroke:none;stroke-width:0.305245;stroke-linecap:round"
             id="circle3837"
             cx="-99.416237"
             cy="69.008949"
             r="4.8914928"
             transform="scale(-1,1)" /><circle
             style="fill:#ffffff;fill-opacity:1;stroke:none;stroke-width:0.152623;stroke-linecap:round"
             id="circle3839"
             cx="-102.61685"
             cy="66.63604"
             r="2.4457464"
             transform="scale(-1,1)" /><path
             style="fill:none;fill-opacity:1;stroke:#ffffff;stroke-width:2.15595;stroke-linecap:round;stroke-dasharray:none;stroke-opacity:1"
             d="m 113.53336,107.24281 c 0,0 2.75677,3.20619 3.85127,7.61834 0.72964,2.9413 0.0932,6.83679 -0.29107,9.14223"
             id="path7874" /></g></g></g></g></svg>
