<?xml version="1.0" encoding="UTF-8" standalone="no"?>
<!-- Created with Inkscape (http://www.inkscape.org/) -->

<svg
   width="201"
   height="160"
   viewBox="0 0 53.181251 42.333332"
   version="1.1"
   id="svg5"
   xml:space="preserve"
   sodipodi:docname="crab-left.svg"
   inkscape:version="1.2.2 (b0a84865, 2022-12-01)"
   xmlns:inkscape="http://www.inkscape.org/namespaces/inkscape"
   xmlns:sodipodi="http://sodipodi.sourceforge.net/DTD/sodipodi-0.dtd"
   xmlns="http://www.w3.org/2000/svg"
   xmlns:svg="http://www.w3.org/2000/svg"><sodipodi:namedview
     id="namedview7"
     pagecolor="#ffffff"
     bordercolor="#000000"
     borderopacity="0.25"
     inkscape:showpageshadow="2"
     inkscape:pageopacity="0.0"
     inkscape:pagecheckerboard="0"
     inkscape:deskcolor="#d1d1d1"
     inkscape:document-units="px"
     showgrid="false"
     showguides="true"
     inkscape:zoom="1.6704181"
     inkscape:cx="86.205963"
     inkscape:cy="-6.2858515"
     inkscape:window-width="1309"
     inkscape:window-height="1041"
     inkscape:window-x="0"
     inkscape:window-y="0"
     inkscape:window-maximized="0"
     inkscape:current-layer="g4112"><sodipodi:guide
       position="75.629906,-115.07942"
       orientation="0,-1"
       id="guide2794"
       inkscape:locked="false" /></sodipodi:namedview><defs
     id="defs2" /><g
     inkscape:label="Layer 1"
     inkscape:groupmode="layer"
     id="layer1"><g
       id="g4112"
       transform="matrix(0.41234807,0,0,0.41234807,-5.4742151,-22.508042)"><g
         id="g10673"
         transform="rotate(-5.8767645,60.694153,51.876051)"><path
           style="fill:none;fill-opacity:1;stroke:#fdf2ec;stroke-width:3.63299;stroke-linecap:round;stroke-opacity:1"
           d="m 38.526225,105.83628 c 0,0 -17.169744,-6.45034 -14.176608,-27.992695"
           id="path2584-2"
           sodipodi:nodetypes="cc" /><path
           id="path3897"
           style="fill:#fdf2ec;fill-opacity:1;stroke:none;stroke-width:2.794;stroke-linecap:round;stroke-opacity:1"
           d="M 26.10908,55.408513 A 11.291737,13.352926 0 0 0 15.41412,68.736382 11.291737,13.352926 0 0 0 26.70594,82.089055 11.291737,13.352926 0 0 0 37.99776,68.736382 11.291737,13.352926 0 0 0 37.06965,63.436963 L 26.50647,73.562444 c 0,0 -3.64506,-6.353902 -0.39739,-18.153931 z" /></g><path
         style="fill:none;fill-opacity:1;stroke:#fdf2ec;stroke-width:3.63299;stroke-linecap:round;stroke-opacity:1"
         d="m 162.97936,54.36344 c 0,0 17.16974,-6.45034 14.1766,-27.992695"
         id="path4079"
         sodipodi:nodetypes="cc" /><path
         id="path4081"
         style="fill:#fdf2ec;fill-opacity:1;stroke:none;stroke-width:2.794;stroke-linecap:round;stroke-opacity:1"
         d="m 175.3965,3.9356733 a 11.291737,13.352926 0 0 1 10.69496,13.3278687 11.291737,13.352926 0 0 1 -11.29182,13.352673 11.291737,13.352926 0 0 1 -11.29182,-13.352673 11.291737,13.352926 0 0 1 0.92811,-5.299419 l 10.56318,10.125481 c 0,0 3.64506,-6.353902 0.39739,-18.1539307 z" /><path
         id="path111"
         style="fill:#fdf2ec;fill-opacity:1;stroke:none;stroke-width:2.39881;stroke-linecap:round"
         d="M 80.004421,-53.256746 A 45.870384,32.214115 0 0 0 34.133932,-21.04263 45.870384,32.214115 0 0 0 80.004421,11.17148 45.870384,32.214115 0 0 0 125.87365,-21.04263 45.870384,32.214115 0 0 0 80.004421,-53.256746 Z" /><g
         id="g2784"
         style="stroke:#fdf2ec;stroke-opacity:1"
         transform="translate(1.2853725,-138.78765)"><path
           style="fill:none;fill-opacity:1;stroke:#fdf2ec;stroke-width:3.63299;stroke-linecap:round;stroke-opacity:1"
           d="m 42.307548,122.48191 c 0,0 -21.650592,-2.14873 -27.08145,19.32505"
           id="path2584"
           sodipodi:nodetypes="cc" /><path
           style="fill:none;fill-opacity:1;stroke:#fdf2ec;stroke-width:3.63299;stroke-linecap:round;stroke-opacity:1"
           d="m 50.246815,129.77072 c 0,0 -21.650591,-2.14873 -27.081449,19.32505"
           id="path2768"
           sodipodi:nodetypes="cc" /><path
           style="fill:none;fill-opacity:1;stroke:#fdf2ec;stroke-width:3.63299;stroke-linecap:round;stroke-opacity:1"
           d="m 58.653098,136.3762 c 0,0 -21.650592,-2.14873 -27.08145,19.32505"
           id="path2779"
           sodipodi:nodetypes="cc" /></g><path
         style="fill:none;fill-opacity:1;stroke:#fdf2ec;stroke-width:3.63299;stroke-linecap:round;stroke-opacity:1"
         d="m 114.12712,-16.56211 c 0,0 21.65059,-2.14873 27.08145,19.32505"
         id="path2786"
         sodipodi:nodetypes="cc" /><path
         style="fill:none;fill-opacity:1;stroke:#fdf2ec;stroke-width:3.63299;stroke-linecap:round;stroke-opacity:1"
         d="m 106.18786,-9.2733 c 0,0 21.65059,-2.14873 27.08144,19.32505"
         id="path2788"
         sodipodi:nodetypes="cc" /><path
         style="fill:none;fill-opacity:1;stroke:#fdf2ec;stroke-width:3.63299;stroke-linecap:round;stroke-opacity:1"
         d="m 97.781574,-2.66782 c 0,0 21.650586,-2.14873 27.081446,19.32505"
         id="path2790"
         sodipodi:nodetypes="cc" /><g
         id="g3829"
         transform="translate(1.2853725,-138.78765)"><rect
           style="fill:#fdf2ec;fill-opacity:1;stroke:none;stroke-width:1.21074;stroke-linecap:round"
           id="rect2481"
           width="4.6078234"
           height="18.988926"
           x="33.113384"
           y="90.238281"
           transform="rotate(-16.530714)" /><g
           id="g3821"
           transform="translate(-1.9558011,0.53340029)"><circle
             style="fill:#fdf2ec;fill-opacity:1;stroke:none;stroke-width:0.624032;stroke-linecap:round"
             id="path111-5"
             cx="57.180256"
             cy="68.353012"
             r="10" /><circle
             style="fill:#ffffff;fill-opacity:1;stroke:none;stroke-width:0.474839;stroke-linecap:round"
             id="path111-5-7"
             cx="57.196678"
             cy="68.316002"
             r="7.6091995" /><circle
             style="fill:#fdf2ec;fill-opacity:1;stroke:none;stroke-width:0.305245;stroke-linecap:round"
             id="path111-5-7-2"
             cx="56.96526"
             cy="68.475548"
             r="4.8914928" /><circle
             style="fill:#ffffff;fill-opacity:1;stroke:none;stroke-width:0.152623;stroke-linecap:round"
             id="circle3815"
             cx="59.315464"
             cy="65.485878"
             r="2.4457464" /></g></g><rect
         style="fill:#fdf2ec;fill-opacity:1;stroke:none;stroke-width:1.21074;stroke-linecap:round"
         id="rect3831"
         width="4.6078234"
         height="18.988926"
         x="-76.672585"
         y="-87.117264"
         transform="matrix(-0.95866735,-0.28452929,-0.28452929,0.95866735,0,0)" /><circle
         style="fill:#fdf2ec;fill-opacity:1;stroke:none;stroke-width:0.624032;stroke-linecap:round"
         id="circle3833"
         cx="-100.48661"
         cy="-69.901237"
         r="10"
         transform="scale(-1,1)" /><circle
         style="fill:#ffffff;fill-opacity:1;stroke:none;stroke-width:0.474839;stroke-linecap:round"
         id="circle3835"
         cx="-100.47019"
         cy="-69.938248"
         r="7.6091995"
         transform="scale(-1,1)" /><circle
         style="fill:#fdf2ec;fill-opacity:1;stroke:none;stroke-width:0.305245;stroke-linecap:round"
         id="circle3837"
         cx="-100.70161"
         cy="-69.778702"
         r="4.8914928"
         transform="scale(-1,1)" /><circle
         style="fill:#ffffff;fill-opacity:1;stroke:none;stroke-width:0.152623;stroke-linecap:round"
         id="circle3839"
         cx="-103.90222"
         cy="-72.151611"
         r="2.4457464"
         transform="scale(-1,1)" /><path
         style="fill:none;fill-opacity:1;stroke:#ffffff;stroke-width:2.15595;stroke-linecap:round;stroke-dasharray:none;stroke-opacity:1"
         d="m 114.81873,-31.54484 c 0,0 2.75677,3.20619 3.85127,7.61834 0.72964,2.9413 0.0932,6.83679 -0.29107,9.14223"
         id="path7874"
         sodipodi:nodetypes="csc" /></g></g></svg>
