<?xml version="1.0" encoding="UTF-8" standalone="no"?>
<!-- Created with Inkscape (http://www.inkscape.org/) -->

<svg
   width="300"
   height="424.28571"
   viewBox="0 0 79.374998 112.25893"
   version="1.1"
   id="svg5"
   xml:space="preserve"
   xmlns="http://www.w3.org/2000/svg"
   xmlns:svg="http://www.w3.org/2000/svg"><defs
     id="defs2" /><g
     id="layer1"><path
       style="fill:#ea9c30;stroke-width:0.102974;fill-opacity:1"
       d="m 37.614833,108.50563 c -2.038248,-0.21067 -3.803,-0.83977 -4.7538,-1.69461 -0.511135,-0.45956 -0.706094,-0.82313 -0.940514,-1.75391 -0.163551,-0.64939 -0.659165,-1.30326 -1.400217,-1.84732 -1.044892,-0.76713 -1.746242,-1.60832 -2.318232,-2.78042 -0.635,-1.301241 -0.842776,-2.171071 -0.848621,-3.552621 -0.0098,-2.322818 0.726924,-3.66068 2.988396,-5.426563 2.060737,-1.60914 2.942518,-3.195927 3.900518,-7.019054 0.246391,-0.983288 0.532569,-1.932634 0.635954,-2.109652 0.103385,-0.177018 0.458275,-0.527297 0.788646,-0.778404 1.046553,-0.795461 1.229529,-1.61738 1.228556,-5.518587 -0.0011,-4.569059 -0.66405,-8.452461 -2.091643,-12.253119 -0.485181,-1.291691 -1.681698,-3.826556 -1.733239,-3.671929 -0.02055,0.06161 0.172825,0.77379 0.429693,1.582644 1.726805,5.437591 2.2759,8.921563 2.382149,15.114708 0.05192,3.025988 -0.01782,2.964675 -0.409988,-0.360408 -0.53188,-4.50979 -1.105606,-7.733594 -1.763985,-9.911965 -0.800649,-2.649085 -1.903655,-5.811933 -2.486593,-7.130256 -1.336807,-3.023199 -1.672886,-4.194243 -1.674019,-5.832935 -7.78e-4,-1.410052 0.202646,-2.015236 1.294216,-3.846634 2.34576,-3.935616 5.730009,-8.685926 7.346355,-10.311724 1.623233,-1.632732 2.100907,-1.632732 3.724144,0 1.615507,1.624957 4.994638,6.36771 7.346928,10.311724 1.175096,1.97025 1.334954,2.493486 1.268444,4.151836 -0.06347,1.582613 -0.258393,2.250645 -1.552843,5.321787 -2.56265,6.080006 -3.442196,9.570037 -4.34683,17.248167 -0.391762,3.325102 -0.461638,3.386572 -0.409719,0.360408 0.104479,-6.089681 0.682547,-9.812532 2.31047,-14.879763 0.634172,-1.973983 0.593836,-2.103961 -0.172836,-0.556929 -2.118218,4.274261 -3.149273,9.073173 -3.15067,14.664388 -7.79e-4,3.901207 0.182002,4.723126 1.228555,5.518587 0.330371,0.251107 0.685262,0.601386 0.788647,0.778404 0.103381,0.177018 0.389563,1.126364 0.635954,2.109652 0.95756,3.821379 1.837624,5.405776 3.899175,7.019724 1.027596,0.804487 1.895747,1.704025 2.280994,2.363445 0.603021,1.032182 0.854019,2.479536 0.679255,3.916848 -0.276495,2.274061 -1.367524,4.179271 -3.137363,5.478641 -0.741056,0.54406 -1.236666,1.19793 -1.400217,1.84732 -0.299349,1.18857 -0.716351,1.74839 -1.752116,2.35216 -0.630551,0.36754 -1.93444,0.78942 -2.979755,0.9641 -1.094619,0.18293 -4.579291,0.26194 -5.833849,0.13226 z m -3.291226,-7.20566 c 0.539816,-0.64154 0.593127,-1.661941 0.148941,-2.850731 -0.162056,-0.43372 -0.395733,-0.76807 -0.865096,-1.23782 -0.64296,-0.64349 -1.072135,-0.883997 -0.673807,-0.37761 0.278063,0.35351 0.629517,1.30932 0.629517,1.71203 0,0.35893 -0.24945,0.69932 -0.512487,0.69932 -0.687899,0 -1.809489,-0.74243 -2.155705,-1.42696 -0.240396,-0.47531 -0.421033,-1.32057 -0.421033,-1.97018 0,-0.600892 -0.131633,-0.725024 -0.374988,-0.353618 -0.257475,0.392959 -0.228589,1.409498 0.0585,2.058728 0.280133,0.63352 0.575115,0.95056 1.552174,1.66829 1.14595,0.841791 1.841155,1.551861 1.963225,2.005191 0.126263,0.4689 0.301318,0.48864 0.650756,0.0734 z m 12.10441,-0.0725 c 0.130528,-0.48467 0.626995,-1.00132 1.808965,-1.882521 1.140769,-0.85048 1.420047,-1.14364 1.706423,-1.79128 0.281391,-0.63634 0.307844,-1.678993 0.05249,-2.068726 -0.09452,-0.144259 -0.209168,-0.239232 -0.254766,-0.211046 -0.0456,0.02817 -0.110625,0.44401 -0.1445,0.924073 -0.07816,1.107529 -0.362413,1.789679 -0.967808,2.322569 -0.417558,0.36755 -1.186601,0.72468 -1.56053,0.72468 -0.27207,0 -0.530381,-0.32745 -0.530381,-0.67235 0,-0.42639 0.24783,-1.12799 0.571826,-1.61883 0.383601,-0.581146 0.105806,-0.46507 -0.616114,0.25743 -0.47801,0.4784 -0.702214,0.80189 -0.873513,1.26032 -0.440108,1.17782 -0.379086,2.190701 0.171389,2.844901 0.335404,0.3986 0.511801,0.37388 0.636523,-0.0892 z M 37.954318,78.856277 c 0.404793,-1.856453 0.154004,-8.607398 -0.481086,-12.950211 -0.272478,-1.863241 -0.404714,-2.549008 -1.07374,-5.568295 -0.81466,-3.676521 -1.008182,-4.898535 -1.013729,-6.401235 -0.006,-1.62835 0.141001,-2.332336 1.125182,-5.388043 0.422754,-1.312579 0.980334,-3.104749 1.239067,-3.982607 0.534619,-1.81393 0.813612,-2.431297 1.27362,-2.818373 0.279005,-0.234765 0.415811,-0.270847 1.026903,-0.270847 0.611096,0 0.747901,0.03608 1.026906,0.270847 0.459436,0.38659 0.738355,1.003019 1.275248,2.818373 0.259627,0.877858 0.818015,2.673986 1.240862,3.991403 0.984555,3.06748 1.127755,3.754181 1.121757,5.379247 -0.0056,1.501661 -0.199426,2.725703 -1.011264,6.384395 -0.660875,2.978339 -0.801961,3.709797 -1.072692,5.56125 -0.640352,4.37916 -0.891811,11.109022 -0.484772,12.974096 0.105066,0.481405 0.225079,0.937362 0.266703,1.013238 0.04162,0.07588 0.107417,-1.175255 0.146208,-2.780301 0.112656,-4.661287 0.353625,-7.135473 0.996445,-10.231205 0.509408,-2.453258 1.08153,-4.293214 2.625006,-8.4421 1.032386,-2.775078 1.236966,-3.586555 1.134519,-4.500179 -0.09413,-0.839394 -0.653706,-2.491244 -1.426041,-4.209616 -2.435741,-5.41928 -3.43979,-7.499068 -4.069455,-8.429454 -0.942137,-1.392092 -2.597451,-1.392092 -3.538362,0 -0.50023,0.74009 -1.353812,2.453301 -2.81883,5.657633 -2.522991,5.518353 -2.891907,6.670888 -2.625321,8.201734 0.06726,0.386208 0.553857,1.861405 1.081336,3.278217 1.543198,4.145017 2.116372,5.987791 2.626348,8.443765 0.642494,3.094168 0.881502,5.550918 0.9954,10.231699 0.03906,1.605315 0.105203,2.856452 0.146978,2.780302 0.04177,-0.07615 0.161835,-0.532328 0.266804,-1.013733 z m 1.444329,-15.034222 c 0.0193,-7.504242 9e-5,-15.057396 -0.04267,-16.78479 l -0.07774,-3.14071 -0.237198,1.08123 c -0.326347,1.48758 -0.798361,4.293219 -1.013465,6.023986 -0.256594,2.06461 -0.235617,5.737761 0.04823,8.443879 0.36766,3.505272 0.612848,7.561946 0.840211,13.90151 0.05281,1.47253 0.128589,3.163883 0.168396,3.758556 0.06419,0.958977 0.08407,1.040478 0.175772,0.720821 0.06606,-0.230266 0.116065,-5.287336 0.138474,-14.004482 z m 1.778219,9.782541 c 0.233585,-6.581307 0.473407,-10.58365 0.848414,-14.158946 0.283843,-2.706118 0.304821,-6.379269 0.04823,-8.443879 -0.215103,-1.730767 -0.687118,-4.536406 -1.013464,-6.023986 l -0.237198,-1.08123 -0.07774,3.14071 c -0.100572,4.062839 -0.02767,30.316962 0.08548,30.789272 0.07896,0.329546 0.09287,0.294274 0.162414,-0.411899 0.04183,-0.424766 0.124577,-2.139285 0.183875,-3.810042 z M 28.701488,87.29388 c -0.463534,-0.269721 -2.768958,-3.209698 -2.6277,-3.350958 0.03242,-0.03243 0.466963,0.142042 0.965632,0.387707 1.070788,0.527507 2.092251,1.451979 2.297959,2.079762 0.115976,0.35394 0.108546,0.426439 -0.06795,0.662836 -0.237381,0.317939 -0.335333,0.356001 -0.567942,0.220653 z m 22.168809,-0.162073 c -0.259055,-0.329336 -0.260226,-0.390533 -0.01747,-0.912875 0.228927,-0.492635 0.78263,-1.033695 1.554626,-1.51914 0.636861,-0.40047 1.551921,-0.824796 1.623758,-0.752958 0.186817,0.186816 -2.502565,3.456294 -2.843055,3.456294 -0.05743,0 -0.200462,-0.122089 -0.317842,-0.271321 z m -19.783932,-4.31817 c -1.270449,-1.279552 -1.583793,-1.409776 -3.592869,-1.493188 -2.231737,-0.09265 -3.312458,-0.485145 -3.977255,-1.44445 -0.261199,-0.376906 -0.490302,-1.431617 -0.310978,-1.431617 0.03779,0 0.240612,0.08584 0.450742,0.190748 0.557118,0.278156 1.180789,0.409564 2.773405,0.584354 2.145866,0.235513 2.865185,0.522224 3.806048,1.517046 0.292017,0.308763 0.702262,0.829208 0.911652,1.156546 0.412701,0.645145 0.918135,1.687647 0.850847,1.754929 -0.02296,0.02295 -0.433169,-0.352514 -0.911592,-0.834368 z m 1.556544,0.882429 c -0.0035,-0.02834 -0.09836,-0.774911 -0.210596,-1.659096 -0.331072,-2.608216 -0.933006,-4.640294 -2.009843,-6.785042 -1.432984,-2.854093 -3.080187,-4.398352 -5.772675,-5.411893 -1.557382,-0.586251 -2.713563,-1.561495 -3.283257,-2.76944 -0.188233,-0.399122 -0.368566,-0.90361 -0.400745,-1.121087 -0.05795,-0.391646 -0.05635,-0.393853 0.168213,-0.231675 0.483254,0.349005 1.409889,0.775113 2.595128,1.193349 0.67963,0.239824 1.46738,0.552892 1.750557,0.695706 2.022823,1.020175 3.973489,3.133464 5.246522,5.683925 0.67611,1.354557 1.393608,3.730124 1.810525,5.994496 0.250636,1.361259 0.379121,3.820888 0.219648,4.204805 -0.05881,0.14159 -0.10988,0.234268 -0.113477,0.205952 z m 14.658167,-0.257185 c -0.120094,-0.47849 0.03382,-2.926192 0.26097,-4.150217 0.246943,-1.330665 0.819657,-3.504386 1.20845,-4.58662 1.090111,-3.034402 3.433279,-5.875882 5.850884,-7.095156 0.283177,-0.142814 1.070928,-0.455882 1.750558,-0.695706 1.271012,-0.448507 2.355217,-0.944666 2.469955,-1.130316 0.03577,-0.0579 0.125858,-0.105277 0.200154,-0.105277 0.192352,0 0.03319,0.781298 -0.287528,1.411593 -0.630241,1.23852 -1.623568,2.069795 -3.257862,2.726361 -2.093368,0.841 -3.342263,1.746463 -4.464934,3.237125 -1.73164,2.299243 -2.915384,5.460091 -3.361699,8.976443 -0.111539,0.87876 -0.224285,1.619234 -0.250548,1.645498 -0.02627,0.02626 -0.07954,-0.07894 -0.1184,-0.233728 z m 0.83391,0.05121 c 0.219155,-0.733327 1.009988,-1.991613 1.730627,-2.753584 0.948756,-1.00317 1.655345,-1.277867 3.931973,-1.52862 1.255904,-0.138327 2.162009,-0.354466 2.960506,-0.706188 0.152335,-0.0671 0.180204,-0.0239 0.180204,0.279476 0,0.646505 -0.41892,1.341056 -1.085368,1.799495 -0.683144,0.469924 -1.553707,0.669374 -3.239545,0.7422 -2.030059,0.0877 -2.253471,0.179624 -3.579356,1.472773 -0.701565,0.68425 -0.954346,0.879499 -0.899041,0.694448 z M 30.734195,79.391532 c -0.977806,-1.513707 -2.496902,-2.875437 -3.651484,-3.273224 -0.224947,-0.0775 -1.118076,-0.182652 -1.984732,-0.233676 -1.838583,-0.108243 -2.29441,-0.265271 -3.099519,-1.067753 -0.765808,-0.763309 -1.357025,-2.244872 -1.567252,-3.927457 l -0.07517,-0.601597 0.891319,0.680073 c 0.933026,0.711898 1.74639,1.166125 2.794671,1.560698 3.320297,1.249755 5.076945,2.683015 6.304003,5.143478 0.435274,0.872801 0.978211,2.292486 0.929348,2.430086 -0.01603,0.04513 -0.259561,-0.27465 -0.54119,-0.710628 z m 18.069666,0.732318 c -0.0011,-0.232162 0.541174,-1.629655 0.951174,-2.451776 1.227057,-2.460463 2.983707,-3.893723 6.304003,-5.143478 1.048277,-0.394573 1.861645,-0.8488 2.794671,-1.560698 l 0.891316,-0.680073 -0.07516,0.601597 c -0.211827,1.695397 -0.81205,3.173866 -1.614138,3.975959 -0.756753,0.756748 -1.202718,0.905295 -3.053104,1.016959 -0.8664,0.05228 -1.759315,0.158467 -1.984261,0.235968 -1.15973,0.399558 -2.657932,1.746362 -3.675778,3.304328 -0.296009,0.453087 -0.538433,0.76863 -0.538722,0.701214 z M 33.106812,76.410643 c -0.107989,-0.382293 -0.437079,-1.413322 -0.731306,-2.291176 -1.386704,-4.137334 -2.699354,-6.566774 -4.53985,-8.402297 -1.181708,-1.178516 -1.745284,-1.48183 -2.762333,-1.486688 -1.381198,-0.0066 -2.809005,-0.184575 -3.350938,-0.41771 -0.977919,-0.420691 -1.771862,-1.638077 -2.008644,-3.079942 l -0.0761,-0.463386 0.421194,0.526206 c 0.53128,0.66375 1.317253,1.200662 2.177172,1.487272 0.518939,0.172958 1.062666,0.241623 2.419893,0.305595 2.417079,0.113929 2.951785,0.331647 4.041118,1.645432 1.794747,2.164544 3.431271,6.067977 4.299616,10.255443 0.235841,1.137302 0.43192,2.616324 0.346854,2.616324 -0.02219,0 -0.128686,-0.312784 -0.236678,-0.695073 z m 13.690593,0.007 c 0.08257,-1.00932 0.47013,-2.829201 0.96982,-4.554087 1.02677,-3.544337 2.536375,-6.555597 4.04048,-8.059706 0.995954,-0.995954 1.295862,-1.095841 3.637465,-1.211478 1.348062,-0.06658 1.904457,-0.137748 2.419894,-0.309537 0.859545,-0.286486 1.675781,-0.84378 2.192219,-1.496765 l 0.408657,-0.516713 -0.07735,0.463386 c -0.24047,1.440525 -1.033117,2.659741 -1.999435,3.075438 -0.559306,0.240608 -1.946524,0.421073 -3.25843,0.423899 -1.131355,0.0023 -1.646351,0.269337 -2.865305,1.485003 -2.015537,2.010088 -3.35778,4.626496 -4.970801,9.689473 -0.555208,1.742705 -0.557442,1.747242 -0.497211,1.011087 z M 34.506411,76.03808 c -0.04972,-0.580221 -1.026922,-4.213106 -1.546448,-5.749144 -1.218286,-3.601984 -2.33238,-6.096193 -4.158725,-9.310446 -2.543992,-4.477276 -4.446367,-8.196258 -4.936291,-9.650045 -0.585962,-1.73876 -0.502328,-3.371369 0.240888,-4.702354 0.506301,-0.906708 2.715099,-3.955125 3.828917,-5.284373 3.434782,-4.099137 5.883277,-6.45874 8.587313,-8.275562 l 1.156853,-0.777282 -0.281571,-0.398172 c -0.154867,-0.218996 -0.331824,-0.399165 -0.393239,-0.400371 -0.303357,-0.006 -4.257833,2.630579 -5.891663,3.928123 -1.629885,1.294415 -3.61048,3.353454 -5.390204,5.603701 -1.866098,2.359452 -2.697361,3.592872 -3.479812,5.163331 -0.699762,1.404494 -0.944837,2.257575 -0.95566,3.326558 -0.01191,1.177078 0.203867,1.79997 0.913223,2.636156 0.305883,0.360569 0.517697,0.655578 0.470703,0.655578 -0.201829,0 -1.039373,-0.621224 -1.390321,-1.031223 -0.999974,-1.168243 -1.274975,-3.420915 -0.647225,-5.301686 0.953867,-2.857821 3.836477,-7.116408 6.905645,-10.201976 2.165777,-2.177348 4.291199,-3.831767 6.989085,-5.440274 0.828663,-0.494058 1.506662,-0.921727 1.506662,-0.950372 0,-0.02865 -0.140153,-0.255789 -0.311452,-0.504764 -0.339863,-0.49398 -0.361642,-0.495607 -1.156625,-0.08644 -1.146728,0.590208 -4.734949,2.910484 -6.254984,4.044695 -1.10313,0.823133 -3.175158,2.865357 -4.189144,4.128885 -2.027006,2.525868 -4.200395,6.272013 -4.913897,8.469805 -0.462132,1.423499 -0.594298,2.231029 -0.644609,3.938581 -0.04158,1.411267 -0.01954,1.758357 0.153611,2.419889 0.111184,0.42477 0.188934,0.786448 0.172775,0.803728 -0.07674,0.08206 -0.795633,-1.227622 -1.002941,-1.827167 -0.202637,-0.586044 -0.232788,-0.873627 -0.227374,-2.168758 0.007,-1.689969 0.213402,-2.730384 0.949605,-4.788296 2.121782,-5.931007 7.757765,-12.36963 14.407539,-16.459358 0.933111,-0.573877 1.366875,-0.899302 1.36811,-1.026393 0.0035,-0.34778 -0.232481,-1.118418 -0.356903,-1.166164 -0.126239,-0.04844 -2.158752,0.845438 -3.223881,1.417832 -2.477335,1.331307 -3.944081,2.448502 -6.2384,4.751696 -1.570055,1.576129 -1.800336,1.774046 -1.567221,1.346956 0.380689,-0.697462 1.728261,-2.482078 2.724437,-3.608035 1.536634,-1.736815 4.167704,-3.704357 6.418962,-4.800162 0.606018,-0.294982 1.104154,-0.595174 1.106972,-0.667093 0.01,-0.254479 -0.517199,-1.410921 -0.936617,-2.054671 -0.233812,-0.358871 -0.392347,-0.685264 -0.352291,-0.725316 0.04005,-0.04005 0.347593,0.07127 0.683424,0.247399 0.335831,0.176118 0.610602,0.29725 0.610602,0.269178 0,-0.09658 -1.321869,-2.755331 -1.689466,-3.398124 -0.202427,-0.353971 -0.332944,-0.643586 -0.290035,-0.643586 0.04291,0 0.456902,0.335952 0.919988,0.746559 0.738837,0.655114 1.149429,1.075681 2.337383,2.394152 0.218708,0.242732 0.267233,0.264795 0.22648,0.102973 -0.02853,-0.113271 -0.126535,-0.507147 -0.217804,-0.875282 -0.263079,-1.061132 -0.544552,-1.819168 -1.143358,-3.079178 -0.306902,-0.645789 -0.54141,-1.190758 -0.521126,-1.211042 0.06382,-0.06382 1.187819,1.319031 1.79156,2.204159 0.318387,0.466783 0.596451,0.831138 0.617911,0.809674 0.02145,-0.02145 -0.12002,-0.496054 -0.314403,-1.054645 -0.446556,-1.283241 -0.81471,-2.590161 -0.768607,-2.728473 0.0195,-0.05848 0.181287,0.118755 0.359545,0.393852 0.38364,0.592061 1.168433,1.502662 1.236441,1.434654 0.02627,-0.02627 -0.12221,-0.549585 -0.329939,-1.162934 -0.411175,-1.214054 -0.876389,-2.877071 -0.873689,-3.123177 7.79e-4,-0.08496 0.146718,0.07723 0.323965,0.360408 0.487842,0.779411 0.932741,1.288804 1.845249,2.11275 l 0.829829,0.749294 -0.07079,-0.401282 c -0.03894,-0.220703 -0.230913,-1.211987 -0.426607,-2.202855 -0.311692,-1.578219 -0.575339,-4.0582267 -0.416042,-3.9134887 0.03118,0.02833 0.181298,0.561209 0.333624,1.1842027 0.152333,0.622993 0.348739,1.294901 0.436463,1.493125 l 0.1595,0.36041 0.09283,-0.566359 c 0.08981,-0.547896 -0.04232,-2.9201307 -0.195013,-3.5011197 -0.0586,-0.222968 -0.04637,-0.24 0.09127,-0.127224 0.136599,0.111917 0.486095,0.817397 0.751708,1.517374 0.0608,0.160219 0.117603,0.05733 0.255813,-0.463383 0.198131,-0.746442 0.432655,-1.338101 0.657839,-1.659591 0.139327,-0.198921 0.158923,-0.157523 0.281246,0.594171 l 0.131481,0.807984 0.153121,-0.489126 c 0.08421,-0.269019 0.183185,-0.489127 0.219933,-0.489127 0.03674,0 0.13572,0.220108 0.219937,0.489127 l 0.153117,0.489126 0.133183,-0.818513 0.133182,-0.818509 0.248663,0.406614 c 0.226351,0.370128 0.368644,0.770584 0.638449,1.796767 0.08169,0.310674 0.105545,0.331986 0.172907,0.15446 0.265589,-0.699926 0.615108,-1.405457 0.751708,-1.517374 0.137645,-0.112776 0.149867,-0.09574 0.09127,0.127224 -0.152688,0.580989 -0.284823,2.9532237 -0.195012,3.5011197 l 0.09283,0.566359 0.159499,-0.36041 c 0.08772,-0.198224 0.284131,-0.870132 0.436457,-1.493125 C 43.23906,9.9098913 43.389191,9.3770003 43.420358,9.3486823 43.57876,9.2047623 43.31552,11.6808 43.004349,13.2617 c -0.195088,0.991125 -0.386765,1.982334 -0.42595,2.202685 l -0.07125,0.400639 0.884365,-0.805047 c 0.911912,-0.830119 1.166869,-1.123715 1.766456,-2.034135 0.205514,-0.31206 0.350197,-0.455968 0.350197,-0.348317 0,0.248873 -0.444319,1.811544 -0.888837,3.126054 -0.200617,0.593252 -0.343269,1.100125 -0.317006,1.126388 0.06756,0.06756 0.851774,-0.841009 1.230895,-1.426091 0.175203,-0.270388 0.339078,-0.491614 0.364162,-0.491614 0.10129,0 -0.123161,0.852883 -0.606586,2.304933 -0.28064,0.842943 -0.493654,1.549225 -0.473365,1.569517 0.02027,0.02028 0.29739,-0.345024 0.615782,-0.811807 0.625143,-0.916505 1.728522,-2.267197 1.796522,-2.199198 0.023,0.023 -0.163197,0.452139 -0.413802,0.953607 -0.516227,1.032978 -1.010569,2.344809 -1.255476,3.331652 -0.09136,0.368135 -0.192099,0.762011 -0.223861,0.875282 -0.03176,0.113271 0.280835,-0.164758 0.694664,-0.617845 0.955108,-1.045716 2.21856,-2.249683 2.592866,-2.470792 l 0.28886,-0.170635 -0.372369,0.651383 c -0.371037,0.649054 -1.693787,3.308869 -1.693787,3.405915 0,0.02806 0.274776,-0.09306 0.610607,-0.269178 0.335831,-0.176122 0.643372,-0.287451 0.683424,-0.247399 0.04005,0.04005 -0.118479,0.366445 -0.352291,0.725316 -0.416145,0.638721 -0.94458,1.795206 -0.938847,2.054671 0.0016,0.07192 0.499724,0.371983 1.106971,0.666809 2.264593,1.099484 4.871338,3.048375 6.420866,4.800446 1.029429,1.163993 2.335921,2.892172 2.720117,3.598068 0.253315,0.465421 0.06907,0.307801 -1.557888,-1.33279 -2.278495,-2.297585 -3.739161,-3.410301 -6.243086,-4.755895 -1.081047,-0.580946 -3.098495,-1.465949 -3.228263,-1.416151 -0.113155,0.04342 -0.357705,0.895056 -0.352318,1.226929 0.0011,0.068 0.631883,0.513089 1.401728,0.989077 6.668054,4.122775 12.259747,10.510779 14.366927,16.412908 0.743951,2.083789 0.949313,3.116534 0.956393,4.809616 0.0054,1.295131 -0.02472,1.582714 -0.227372,2.168758 -0.207308,0.599545 -0.926203,1.909232 -1.00294,1.827167 -0.01615,-0.01728 0.06183,-0.378958 0.173308,-0.803728 0.174962,-0.666677 0.195815,-1.004688 0.152467,-2.47138 -0.05142,-1.739551 -0.142111,-2.283496 -0.643844,-3.861528 -0.698427,-2.196656 -2.864624,-5.941558 -4.914055,-8.495367 -1.018131,-1.268701 -3.091871,-3.311267 -4.189144,-4.126172 -2.235311,-1.660086 -5.846962,-3.937196 -6.848758,-4.31808 -0.224611,-0.08539 -0.284577,-0.04735 -0.562848,0.357104 -0.171299,0.248975 -0.311456,0.476121 -0.311456,0.504765 0,0.02865 0.678003,0.456314 1.506667,0.950372 4.68236,2.791671 8.442559,6.384301 11.41408,10.905441 1.11149,1.691112 1.56713,2.499681 2.069626,3.67268 0.755032,1.762518 0.931154,3.212038 0.564471,4.64575 -0.234991,0.918808 -0.404688,1.273102 -0.85721,1.789699 -0.315396,0.360054 -1.149761,0.961589 -1.333783,0.961589 -0.047,0 0.16482,-0.295009 0.470699,-0.655578 0.70936,-0.836187 0.925144,-1.459079 0.913227,-2.636156 -0.01086,-1.070886 -0.255934,-1.92215 -0.960588,-3.336401 -1.585875,-3.182857 -5.742599,-8.245528 -8.754782,-10.662865 -1.665784,-1.336826 -5.682446,-4.028741 -6.00197,-4.022448 -0.06141,0.0011 -0.238373,0.181376 -0.393236,0.400371 l -0.281571,0.398173 1.156851,0.777686 c 2.215252,1.489187 4.11329,3.206952 6.505037,5.887198 2.521301,2.825424 3.974784,4.667396 5.423841,6.873525 0.916365,1.39513 1.061097,1.847218 1.063156,3.320911 0.0016,1.124369 -0.02779,1.320783 -0.32575,2.180251 -0.513394,1.480789 -2.436991,5.23523 -4.933151,9.628444 -2.378599,4.186311 -4.158545,8.582132 -5.177827,12.787381 -0.221608,0.914282 -0.448359,1.847685 -0.503894,2.074227 l -0.100968,0.411899 -0.0098,-0.514872 c -0.03176,-1.668835 0.841293,-6.198764 1.686921,-8.752801 0.84406,-2.5493 1.582866,-4.034731 3.22661,-6.487371 2.424512,-3.617629 3.479333,-6.596641 3.11035,-8.784225 -0.180707,-1.071357 -0.786595,-1.908111 -3.407129,-4.705389 -1.676834,-1.789926 -4.666736,-5.085072 -6.450865,-7.109451 -2.59154,-2.940516 -3.270531,-3.384885 -4.334181,-2.836543 -0.66477,0.342709 -1.21388,0.896236 -4.088307,4.121209 -1.542946,1.731098 -3.626396,4.027885 -4.629897,5.103966 -3.377827,3.622132 -3.885285,4.297749 -4.07562,5.426208 -0.370859,2.198688 0.677107,5.139777 3.148327,8.835711 1.907924,2.853475 2.94971,5.209831 3.801476,8.598342 0.657632,2.616206 1.167542,5.861972 1.05961,6.744804 -0.02425,0.198227 -0.05148,0.273867 -0.06054,0.168096 z M 27.539176,46.125471 c 0.481931,-0.296729 2.694516,-2.368858 6.193363,-5.8002 3.519728,-3.451822 4.517057,-4.354268 5.073569,-4.590882 0.491508,-0.208982 1.993574,-0.210601 2.482444,-0.0027 0.577859,0.245768 1.380061,0.969755 4.940432,4.458741 3.75796,3.682604 5.986965,5.762482 6.415288,5.98609 0.520547,0.271751 0.908759,-0.05683 0.703861,-0.595747 -0.125394,-0.32981 -3.849199,-4.228576 -6.664201,-6.977312 -2.256219,-2.203106 -5.112553,-4.849871 -5.233876,-4.849871 -0.03538,0 -0.264119,0.208522 -0.508322,0.463386 -0.392755,0.409902 -0.495611,0.463381 -0.891199,0.463381 -0.396565,0 -0.498223,-0.05325 -0.89785,-0.470325 -0.247858,-0.258677 -0.490762,-0.455617 -0.539789,-0.43764 -0.282017,0.103413 -3.430724,3.094035 -6.699436,6.363088 -5.156372,5.156905 -5.520436,5.58645 -5.095195,6.011691 0.216294,0.216294 0.340424,0.212558 0.720911,-0.02172 z M 22.316572,61.563023 C 21.601035,61.283294 20.824045,60.670742 20.325184,59.99309 19.831158,59.322003 19.595341,58.773057 19.420426,57.886961 l -0.119183,-0.603768 -1.081227,-0.05803 c -1.106111,-0.05937 -1.522844,-0.188997 -1.881432,-0.585228 -0.179052,-0.197858 -0.164562,-0.201878 0.936933,-0.259985 1.337865,-0.07058 1.742284,-0.218509 2.437625,-0.891642 0.596171,-0.577135 0.772853,-0.678587 1.347439,-0.77369 1.022085,-0.169179 2.994837,0.653997 4.044796,1.687781 0.752747,0.741149 1.24612,1.554759 1.695335,2.795734 0.385033,1.063677 0.826515,1.996372 0.993942,2.099847 0.05771,0.03565 0.104931,0.114248 0.104931,0.17462 0,0.178737 -0.617915,0.0055 -0.988529,-0.277242 -0.419169,-0.319716 -0.512167,-0.319073 -1.304694,0.009 -1.477168,0.611438 -2.388975,0.710854 -3.28979,0.358696 z m 1.669994,-0.301765 c 0,-0.04918 -0.182224,-0.113859 -0.404944,-0.14373 -0.522088,-0.07003 -1.415482,-0.481055 -2.210048,-1.016783 l -0.628692,-0.423887 0.360409,0.383352 c 0.751817,0.799687 1.676572,1.265405 2.548611,1.283514 0.184066,0.0039 0.334664,-0.03327 0.334664,-0.08246 z m -1.54225,-3.722988 c 0.169206,-0.16921 0.186981,-0.248158 0.09469,-0.420613 -0.251002,-0.468998 -1.43918,-0.645084 -1.43342,-0.212433 0.0045,0.342416 0.558902,0.831422 0.950221,0.838221 0.09911,0.0016 0.273942,-0.0906 0.388512,-0.205175 z m 33.206804,4.108951 c -0.16991,-0.06012 -0.641656,-0.244114 -1.048328,-0.408875 -0.899598,-0.364472 -0.987774,-0.367153 -1.412777,-0.04299 -0.370617,0.282683 -0.988528,0.455979 -0.988528,0.277242 0,-0.06037 0.04722,-0.138954 0.10493,-0.174619 0.167427,-0.103476 0.608905,-1.03617 0.993943,-2.099848 0.4532,-1.251981 0.941144,-2.051813 1.708202,-2.800057 1.069453,-1.04323 3.008529,-1.852854 4.031928,-1.683458 0.565624,0.09362 0.740496,0.193733 1.372095,0.785498 0.723441,0.67782 1.085391,0.809799 2.412965,0.879834 1.101496,0.05811 1.11599,0.06213 0.936933,0.259986 -0.358583,0.39623 -0.77532,0.525859 -1.881428,0.585227 l -1.081231,0.05803 -0.129667,0.669335 c -0.279721,1.443882 -1.322176,2.853728 -2.558574,3.460297 -0.481348,0.236144 -0.766731,0.302509 -1.379237,0.320731 -0.424765,0.01265 -0.911319,-0.02623 -1.081226,-0.08633 z m 2.156137,-0.667397 c 0.303466,-0.148594 0.776573,-0.502188 1.051344,-0.78577 l 0.499589,-0.515596 -0.628692,0.423088 c -0.797057,0.536391 -1.688992,0.946091 -2.212559,1.016317 -0.224101,0.03005 -0.436783,0.102101 -0.472624,0.160095 -0.125087,0.202396 1.197513,-0.02125 1.762942,-0.298134 z m 0.873677,-3.550088 c 0.380138,-0.380137 0.409366,-0.66735 0.07642,-0.750914 -0.431662,-0.10834 -1.304188,0.272229 -1.304188,0.568845 0,0.180761 0.421778,0.498911 0.661408,0.498911 0.141328,0 0.386898,-0.137381 0.566358,-0.316842 z M 19.67102,34.114285 c -0.593346,-0.627373 -0.984563,-1.383631 -1.14014,-2.203969 -0.05643,-0.297578 -0.128869,-0.583541 -0.16097,-0.635479 -0.03211,-0.05194 -0.669771,-0.393759 -1.41705,-0.759601 C 15.233076,29.673285 13.730485,28.557514 12.093054,26.906508 10.525211,25.325669 9.6780611,24.135193 8.6485306,22.066037 7.4505388,19.658302 6.797756,17.496351 6.4720862,14.857848 6.3055428,13.508541 6.3033789,9.8753453 6.4681739,8.5988633 6.8619018,5.5525672 7.7847113,3.5447022 9.0706929,2.9362715 c 0.5175335,-0.2448612 1.5833401,-0.2289159 2.5744651,0.03853 0.997316,0.2691042 3.335965,1.4081303 4.566674,2.2241718 3.101837,2.0567211 5.463775,4.5805761 6.822762,7.2904798 0.47754,0.952244 0.978148,2.323358 1.148242,3.144899 0.163691,0.790608 0.29277,2.364219 0.193939,2.364219 -0.04481,0 -0.08146,-0.04706 -0.08146,-0.104592 0,-0.158192 -1.386075,-2.694843 -2.099513,-3.842314 -0.834229,-1.341737 -2.032175,-2.930543 -2.953295,-3.916872 -2.421473,-2.5928817 -6.451324,-5.1109649 -8.179425,-5.1109649 -2.0029033,0 -3.4522097,2.5260622 -3.7595561,6.5527019 -0.4163514,5.454774 1.7773071,11.291355 5.8142571,15.469761 1.930797,1.998451 3.314023,2.923292 5.874364,3.927657 0.622994,0.244386 1.240165,0.5454 1.371491,0.668914 l 0.238778,0.224581 -0.264519,0.314363 c -0.145485,0.172899 -0.26452,0.371563 -0.26452,0.441478 0,0.06992 0.162185,0.306633 0.360409,0.526046 0.198224,0.219411 0.360409,0.489901 0.360409,0.60109 0,0.286146 -0.323665,0.929962 -0.467519,0.929962 -0.06625,0 -0.361374,-0.254738 -0.65583,-0.566086 z m 39.815887,0.248169 c -0.267228,-0.469516 -0.223077,-0.766755 0.180205,-1.213137 0.413553,-0.457753 0.443078,-0.627644 0.154459,-0.888839 -0.25382,-0.229703 -0.263259,-0.483939 -0.02573,-0.69322 0.09911,-0.08733 0.782602,-0.394958 1.518867,-0.683619 2.292032,-0.898613 3.822867,-1.930517 5.624708,-3.791497 3.44083,-3.55377 5.485906,-8.067314 5.85429,-12.920617 C 73.044892,10.862266 72.310269,7.5055493 71.002158,5.9854171 70.517775,5.422522 69.714904,5.0238168 69.065791,5.0238168 c -1.345571,0 -4.044558,1.4519105 -6.463907,3.4772305 -1.737259,1.454323 -3.124006,3.0820667 -4.563002,5.3559817 -0.796466,1.25859 -2.233291,3.855815 -2.233291,4.036938 0,0.05753 -0.03666,0.104592 -0.08145,0.104592 -0.09884,0 0.03024,-1.573611 0.193936,-2.364219 0.402176,-1.942512 1.593584,-4.286972 3.153627,-6.2057347 2.114303,-2.600463 6.023955,-5.3393088 9.08638,-6.3653164 1.094731,-0.3667684 2.256778,-0.4181576 2.872128,-0.1270174 1.28607,0.6084768 2.209463,2.6177902 2.602277,5.6625918 0.166057,1.287161 0.164847,4.9212257 -0.0019,6.2589847 -0.180193,1.444021 -0.552165,3.113856 -0.987762,4.434235 -0.49024,1.486007 -1.842081,4.19741 -2.650012,5.315162 -1.848743,2.557695 -4.540671,4.846493 -7.112626,6.047482 -0.591878,0.276382 -1.105625,0.550218 -1.141661,0.608527 -0.03604,0.05831 -0.111694,0.349484 -0.168131,0.647062 -0.05643,0.297574 -0.21559,0.787833 -0.35368,1.089462 -0.25038,0.546902 -1.21969,1.681176 -1.435618,1.679942 -0.06258,-3.11e-4 -0.194874,-0.143129 -0.293986,-0.317266 z M 22.750876,28.453378 c -2.26425,-0.382317 -4.468426,-1.315097 -6.84778,-2.897905 -3.032538,-2.017319 -5.299081,-5.293535 -6.131267,-8.862561 -0.6193076,-2.656029 -0.4500396,-6.229971 0.372739,-7.8701137 0.667409,-1.330431 1.590627,-1.789033 3.007015,-1.49371 1.169889,0.243931 2.617564,1.053337 4.243191,2.372408 0.794819,0.6449367 3.090672,2.9034927 3.090672,3.0404657 0,0.04242 -0.729828,0.103031 -1.621843,0.134685 -1.746052,0.06196 -2.488672,0.194277 -2.757496,0.491325 -0.203945,0.225355 -0.134229,0.511549 0.171062,0.702206 0.122051,0.07622 0.759722,0.243535 1.417047,0.371801 l 1.195131,0.233217 -0.492213,0.226226 c -0.612902,0.281699 -1.604454,0.48973 -2.777215,0.582674 -0.495564,0.03927 -0.901026,0.105125 -0.901026,0.146333 0,0.181796 0.467324,0.642052 0.859273,0.846278 0.337933,0.176083 0.675796,0.235022 1.606856,0.280309 l 1.178953,0.05734 -0.338174,0.283904 c -0.185999,0.156145 -0.542182,0.335271 -0.791523,0.398056 -0.249337,0.06279 -0.427579,0.155837 -0.396093,0.206783 0.0877,0.141899 0.678874,0.365639 1.346352,0.509551 l 0.601838,0.129758 -0.411899,0.129083 c -0.226542,0.07099 -0.881189,0.132645 -1.454771,0.137 -0.778554,0.0059 -1.074327,0.04581 -1.166963,0.157429 -0.193464,0.233107 -0.08702,0.489921 0.295722,0.71345 0.293934,0.17167 0.547105,0.205876 1.565461,0.211523 0.903447,0.005 1.182993,0.03635 1.090661,0.122296 -0.243445,0.226581 -1.170356,0.460077 -2.229375,0.561603 -0.591509,0.05671 -1.135982,0.153327 -1.209945,0.214706 -0.687931,0.570935 1.372273,1.080188 3.364984,0.831777 l 0.770638,-0.09607 -0.387979,0.318928 c -0.213388,0.175409 -0.786533,0.551375 -1.273652,0.835478 -0.487122,0.284099 -0.891012,0.561509 -0.897535,0.616456 -0.03067,0.258288 0.618487,0.410747 1.684698,0.395661 0.98164,-0.01389 1.060402,-0.0011 0.875277,0.140301 -0.320784,0.245293 -1.004948,0.540236 -1.258912,0.542714 -0.347656,0.0035 -0.279585,0.179594 0.155039,0.401322 0.59034,0.30117 1.175653,0.42907 2.002144,0.4375 l 0.751837,0.0077 -0.334668,0.280461 c -0.184065,0.154253 -0.334664,0.329214 -0.334664,0.388808 0,0.150061 0.502021,0.235804 1.428765,0.244032 0.655293,0.0058 0.742594,0.0253 0.527743,0.117859 -1.091917,0.470337 -1.544612,0.703086 -1.544612,0.794154 0,0.202805 0.46739,0.395568 1.109556,0.45761 0.355392,0.03432 0.782696,0.133027 0.949555,0.219314 0.395081,0.204304 1.026132,1.109031 0.746936,1.070863 -0.04248,-0.0058 -0.42477,-0.06924 -0.84954,-0.140958 z m 33.672549,0.0598 c 0,-0.18219 0.557702,-0.851906 0.824164,-0.9897 0.166862,-0.08629 0.594162,-0.18498 0.949558,-0.219315 0.642166,-0.06204 1.109556,-0.254809 1.109556,-0.45761 0,-0.09107 -0.452695,-0.323816 -1.544612,-0.794157 -0.214851,-0.09255 -0.127555,-0.112041 0.527738,-0.11786 1.449891,-0.01288 1.714699,-0.165637 1.094102,-0.63119 l -0.334664,-0.251057 0.978253,-0.05772 c 0.752588,-0.04441 1.114842,-0.120293 1.570354,-0.32897 0.612295,-0.280503 0.763855,-0.486916 0.360413,-0.490855 -0.253964,-0.0023 -0.938131,-0.297422 -1.258917,-0.542715 -0.185124,-0.141558 -0.106358,-0.154183 0.875281,-0.140301 1.066772,0.0151 1.704789,-0.134481 1.681799,-0.394272 -0.005,-0.05571 -0.407516,-0.333745 -0.894636,-0.617845 -0.487118,-0.284103 -1.059431,-0.659395 -1.271807,-0.833983 l -0.386134,-0.317434 0.820284,0.09329 c 2.042146,0.232252 3.996049,-0.263982 3.303277,-0.838934 -0.07857,-0.0652 -0.623044,-0.161535 -1.209949,-0.214072 -1.045876,-0.09362 -1.974398,-0.32577 -2.220999,-0.55529 -0.09234,-0.08594 0.187214,-0.117283 1.09066,-0.122296 1.018357,-0.0057 1.271527,-0.03985 1.565462,-0.211523 0.382737,-0.223529 0.489185,-0.480343 0.295721,-0.71345 -0.09264,-0.111621 -0.388408,-0.151521 -1.166963,-0.157429 -0.573581,-0.0043 -1.228228,-0.06567 -1.454774,-0.136276 l -0.411895,-0.128364 0.556991,-0.123584 c 0.306342,-0.06797 0.769727,-0.219934 1.02974,-0.337696 L 63.374181,17.668452 62.82794,17.485761 C 62.52751,17.385279 62.16433,17.193107 62.020873,17.05871 l -0.26083,-0.244358 1.167476,-0.05734 c 0.919015,-0.04514 1.258547,-0.104798 1.595387,-0.280309 0.391365,-0.203922 0.859269,-0.66442 0.859269,-0.845664 0,-0.04087 -0.405462,-0.105338 -0.901022,-0.143261 -1.151321,-0.08811 -2.15458,-0.300085 -2.777905,-0.586943 l -0.491524,-0.226207 1.132713,-0.226329 c 1.27854,-0.255466 1.667208,-0.409065 1.757863,-0.694691 0.175799,-0.553892 -0.619285,-0.797282 -2.864834,-0.876965 -0.892013,-0.03164 -1.621845,-0.09226 -1.621845,-0.134684 0,-0.04242 0.52196,-0.603146 1.159911,-1.246055 1.83065,-1.8448777 3.271261,-2.9450817 4.845176,-3.7003007 2.987267,-1.4333928 4.653467,-0.111115 5.031009,3.9925497 0.316908,3.44459 -0.487286,6.717358 -2.361032,9.608548 -0.705328,1.088322 -0.867365,1.287356 -1.90794,2.343569 -1.941149,1.97032 -5.110598,3.770543 -7.834495,4.449931 -1.186643,0.29597 -2.124825,0.438575 -2.124825,0.322973 z M 25.678313,26.905824 c 0.702109,-2.659513 0.82952,-3.620907 0.748158,-5.645441 -0.06838,-1.701523 -0.205042,-2.874922 -0.444194,-3.813829 -0.08455,-0.33192 -0.132034,-0.625173 -0.105538,-0.651673 0.0748,-0.07479 0.559887,0.801575 0.845438,1.527359 0.556325,1.413995 0.70437,2.203442 0.702074,3.743797 -0.0023,1.660821 -0.219513,2.580089 -0.887696,3.75986 -0.436395,0.770521 -0.945768,1.41146 -0.858242,1.079927 z m 28.449098,-0.187697 c -0.480953,-0.630564 -0.98385,-1.653097 -1.224433,-2.489633 -0.328917,-1.143673 -0.330776,-3.217117 -0.004,-4.427886 0.361522,-1.339395 1.166356,-3.164694 1.325326,-3.005727 0.02651,0.0265 -0.02098,0.319753 -0.105538,0.651673 -0.250948,0.985232 -0.380678,2.147734 -0.44082,3.950151 -0.06192,1.855668 0.05511,2.889059 0.527809,4.660711 0.138467,0.518978 0.237163,0.958191 0.219322,0.976031 -0.01782,0.01782 -0.151805,-0.124051 -0.297695,-0.31532 z"
       id="path302" /></g></svg>
